<?xml version="1.0" standalone="no"?>
<!DOCTYPE svg PUBLIC "-//W3C//DTD SVG 1.1//EN" "http://www.w3.org/Graphics/SVG/1.1/DTD/svg11.dtd" >
<svg xmlns="http://www.w3.org/2000/svg">
<metadata></metadata>
<defs>
<font id="myra_4f_capslight" horiz-adv-x="1372" >
<font-face units-per-em="2048" ascent="1536" descent="-512" />
<missing-glyph horiz-adv-x="614" />
<glyph horiz-adv-x="2048" />
<glyph horiz-adv-x="2048" />
<glyph unicode="&#xd;" horiz-adv-x="614" />
<glyph unicode=" "  horiz-adv-x="614" />
<glyph unicode="&#x09;" horiz-adv-x="614" />
<glyph unicode="&#xa0;" horiz-adv-x="614" />
<glyph unicode="!" horiz-adv-x="450" d="M113 66q0 45 30.5 75.5t75.5 30.5t76 -30.5t31 -75.5t-31 -76t-76 -31t-75.5 30.5t-30.5 76.5zM133 1434h184l-51 -1127h-82z" />
<glyph unicode="&#x22;" horiz-adv-x="686" d="M123 1434h184l-61 -512h-62zM379 1434h184l-61 -512h-62z" />
<glyph unicode="#" horiz-adv-x="1310" d="M92 481v103h258l78 286h-231v103h258l123 461h129l-123 -461h280l123 461h129l-123 -461h226v-103h-254l-76 -286h225v-103h-254l-127 -481h-129l129 481h-282l-127 -481h-129l129 481h-232zM479 584h281l78 286h-283z" />
<glyph unicode="$" horiz-adv-x="1153" d="M59 104l66 109q72 -59 179.5 -97t217.5 -42v590q-88 18 -164.5 42.5t-134 66.5t-91.5 106.5t-34 167.5q0 100 34 178t92.5 131t135 83.5t162.5 39.5v262h107v-260q104 -4 213.5 -38t193.5 -93l-65 -107q-70 51 -161 81t-181 34v-592q80 -16 159.5 -38.5t143 -64.5 t102.5 -109t39 -171q0 -100 -36 -176t-96 -129t-141 -84t-171 -39v-262h-107v258q-129 4 -252 46t-211 107zM221 1055q0 -68 23.5 -113t65.5 -74.5t96.5 -48t115.5 -31.5v566q-61 -8 -116.5 -31t-96.5 -59.5t-64.5 -89t-23.5 -119.5zM629 78q68 8 126 30.5t101 60.5t68.5 90 t25.5 120q0 57 -20.5 98t-60.5 71t-100 51.5t-140 39.5v-561z" />
<glyph unicode="%" horiz-adv-x="1345" d="M92 1167q0 80 20.5 137.5t57.5 95.5t85 56.5t103 18.5t103.5 -18.5t84.5 -56.5t57.5 -95.5t21.5 -137.5t-21.5 -137t-57.5 -95t-84 -56.5t-104 -18.5q-55 0 -103 18.5t-84 56.5t-57.5 95t-21.5 137zM195 1167q0 -117 46.5 -163t116.5 -46q66 0 115 46.5t49 162.5 q0 117 -48 163t-116 46t-115.5 -46t-47.5 -163zM276 0l668 1434h125l-668 -1434h-125zM721 266q0 80 21.5 137.5t57.5 95.5t84 56t103 18t103.5 -18t84 -56t57 -95.5t21.5 -137.5t-20.5 -137t-57 -95t-85 -56.5t-103.5 -18.5t-103 18.5t-84 56.5t-57.5 95t-21.5 137z M823 266q0 -117 48 -163t116 -46t116 46.5t48 162.5q0 117 -47 163t-117 46q-66 0 -115 -46t-49 -163z" />
<glyph unicode="&#x26;" horiz-adv-x="1449" d="M102 383q0 123 52.5 228.5t177.5 168.5q-23 66 -34 131.5t-11 130.5q0 76 19.5 155t65.5 142.5t122.5 103.5t191.5 40q88 0 173 -24.5t151 -67.5l-66 -105q-49 33 -117.5 53.5t-138.5 20.5q-84 0 -137 -30t-85 -76t-44 -103t-12 -113q0 -115 41 -232.5t108.5 -226 t154.5 -202.5t181 -162q59 57 96 130t58.5 143.5t31 132t11.5 96.5h122q-4 -43 -14 -111.5t-33.5 -147.5t-63.5 -160t-102 -151q119 -66 224 -65q31 0 66.5 6t84.5 23l35 -119q-111 -33 -182 -33q-72 0 -154 27.5t-166 79.5q-68 -49 -155.5 -78t-200.5 -29q-125 0 -211 35 t-139 94t-77 135t-24 160zM225 383q0 -59 16.5 -113.5t55.5 -95.5t102.5 -66.5t155.5 -25.5q74 0 134.5 15.5t109.5 43.5q-127 98 -237.5 233.5t-182.5 289.5q-84 -49 -119 -122t-35 -159z" />
<glyph unicode="'" horiz-adv-x="430" d="M123 1434h184l-61 -512h-62z" />
<glyph unicode="(" horiz-adv-x="614" d="M92 717q0 426 108.5 626.5t321.5 200.5v-119q-152 0 -229.5 -172t-77.5 -536q0 -365 78 -537t229 -172v-119q-213 0 -321.5 201t-108.5 627z" />
<glyph unicode=")" horiz-adv-x="614" d="M92 8q152 0 229.5 172t77.5 537t-77.5 536.5t-229.5 171.5v119q213 0 321.5 -200.5t108.5 -626.5t-108.5 -627t-321.5 -201v119z" />
<glyph unicode="*" horiz-adv-x="874" d="M88 1145l37 98l256 -82v273h111v-275q66 23 129 43.5t129 40.5l36 -98l-264 -86l166 -219l-82 -66l-170 225l-170 -227l-82 68l162 219z" />
<glyph unicode="+" horiz-adv-x="1435" d="M154 657v119h503v504h119v-504h506v-119h-506v-505h-119v505h-503z" />
<glyph unicode="," horiz-adv-x="434" d="M92 82q0 51 37 89t88 38q53 0 89 -37t36 -90q0 -96 -45 -181t-123 -157l-76 66q43 41 72 76.5t47 70.5q-53 2 -89 38t-36 87z" />
<glyph unicode="-" horiz-adv-x="821" d="M154 657v119h514v-119h-514z" />
<glyph unicode="." horiz-adv-x="434" d="M92 84q0 51 37 88t88 37q53 0 89 -36t36 -89q0 -51 -36 -88t-89 -37q-51 0 -88 37t-37 88z" />
<glyph unicode="/" horiz-adv-x="792" d="M0 0l668 1434h125l-668 -1434h-125z" />
<glyph unicode="0" horiz-adv-x="1249" d="M92 717q0 197 41 341t111.5 238.5t168 140.5t212.5 46q113 0 211 -46t168.5 -140.5t111.5 -239t41 -340.5q0 -197 -41 -341.5t-111.5 -238.5t-169 -140t-210.5 -46q-115 0 -212.5 46t-168 140t-111.5 238.5t-41 341.5zM215 717q0 -166 30.5 -288t86 -202t130.5 -118.5 t163 -38.5t162.5 38.5t130 118.5t86 202t30.5 288t-30.5 287.5t-86 201.5t-130 119t-162.5 39t-163 -39t-130.5 -119t-86 -201.5t-30.5 -287.5z" />
<glyph unicode="1" horiz-adv-x="763" d="M10 1163l516 267l2 4h21v-1434h-123v922l8 329l-366 -190z" />
<glyph unicode="2" horiz-adv-x="1159" d="M92 0v78q172 135 320.5 253t258 231.5t171 230t61.5 249.5q0 88 -27.5 149.5t-74.5 100.5t-108.5 55.5t-131.5 16.5q-80 0 -143.5 -23.5t-108.5 -79t-69.5 -148.5t-24.5 -232h-123q0 305 133 453.5t357 148.5q123 0 207.5 -40t137 -103.5t76 -142.5t23.5 -155 q0 -129 -57.5 -254.5t-159.5 -245.5t-243.5 -231.5t-309.5 -212.5l258 21h553v-119h-975z" />
<glyph unicode="3" horiz-adv-x="1114" d="M92 881q0 154 34 267.5t95.5 187t145.5 110.5t184 37q94 0 174 -29t138.5 -86t92 -140t33.5 -192q0 -143 -58.5 -232t-166.5 -124q258 -57 258 -318q0 -98 -35 -173.5t-95.5 -129t-142 -81t-178.5 -27.5q-137 0 -260 53t-215 141l84 88q76 -74 177.5 -118.5t211.5 -44.5 q70 0 130.5 19.5t105.5 57t69.5 93t24.5 127.5q0 117 -73.5 183t-233.5 66h-103v119h109q127 0 197.5 77t70.5 220q0 88 -25.5 150.5t-68.5 102.5t-99.5 59.5t-117.5 19.5q-152 0 -246 -119t-94 -364h-123z" />
<glyph unicode="4" horiz-adv-x="1191" d="M72 369v77l385 988h127l-367 -947h594v500l123 25v-525h186v-118h-186v-369h-123v369h-739z" />
<glyph unicode="5" horiz-adv-x="1114" d="M96 104l72 97q72 -59 173 -95t200 -36q80 0 145.5 25.5t112.5 73.5t73.5 117.5t26.5 159.5q0 170 -90 254t-238 84q-100 0 -170.5 -34.5t-130.5 -87.5v-3h-2l-118 27l47 748h749v-119h-635l-32 -510q63 47 131.5 72.5t167.5 25.5q98 0 180 -28.5t140 -86t91 -142.5 t33 -197q0 -119 -36 -212.5t-99.5 -157t-151.5 -96t-190 -32.5q-127 0 -246 44t-203 109z" />
<glyph unicode="6" horiz-adv-x="1183" d="M92 692q0 209 40 359.5t111.5 246t172 140.5t223.5 45q49 0 104.5 -7.5t108.5 -19.5t102.5 -30.5t87.5 -39.5l-59 -104q-35 16 -77 30.5t-88 25t-92 16.5t-85 6q-180 0 -294 -133t-130 -430q90 47 191.5 75.5t205.5 28.5q100 0 188.5 -28.5t152 -87t100.5 -147.5t37 -210 q0 -223 -125 -350t-353 -127q-106 0 -201.5 34.5t-166 118.5t-112.5 227.5t-42 360.5zM215 651q4 -170 37 -280.5t87 -177t126 -93t151 -26.5q166 0 259.5 94t93.5 260q0 88 -27 154.5t-75 109.5t-113.5 64.5t-143.5 21.5q-102 0 -205.5 -34t-189.5 -93z" />
<glyph unicode="7" horiz-adv-x="966" d="M39 1315v119h889v-78l-588 -1356h-131l573 1315h-743z" />
<glyph unicode="8" horiz-adv-x="1196" d="M92 369q0 115 59.5 208t200.5 146q-119 57 -173 146t-54 200q0 92 35 169t97 131t149.5 84t191.5 30q100 0 187 -29t150.5 -83t99.5 -131t36 -171q0 -109 -52 -198t-175 -148q141 -53 200.5 -147.5t59.5 -206.5q0 -98 -39 -176t-107.5 -132.5t-160.5 -82t-199 -27.5 q-106 0 -198.5 27.5t-161 82t-107.5 132t-39 176.5zM215 365q0 -72 30.5 -127.5t83 -92t121 -56t144.5 -19.5t145.5 18t122.5 55t86 93.5t33 130.5q0 70 -29.5 125t-82 93t-123 56t-152.5 18q-176 -2 -277.5 -81.5t-101.5 -212.5zM248 1071q0 -72 28.5 -125t75.5 -90 t110.5 -55.5t135.5 -18.5t135.5 19.5t111.5 56.5t75.5 91t27.5 124q0 68 -27.5 122t-75.5 92t-111.5 57.5t-135.5 19.5t-135.5 -19.5t-111.5 -57.5t-75.5 -92t-27.5 -124z" />
<glyph unicode="9" horiz-adv-x="1183" d="M92 1006q0 223 125 350t352 127q106 0 201.5 -35t166.5 -119t113 -227.5t42 -360.5q0 -209 -40 -359.5t-112 -245.5t-172 -140t-223 -45q-49 0 -104.5 7t-108.5 19.5t-102.5 30t-88.5 39.5l60 105q33 -16 75.5 -31t89 -25t91.5 -16t86 -6q88 0 162.5 31.5t129 100t88 175 t42.5 254.5q-88 -47 -189.5 -75t-206.5 -28q-102 0 -189 29t-150.5 87.5t-100.5 147.5t-37 210zM215 1006q0 -90 26.5 -156t73.5 -109t114 -64.5t144 -21.5q100 0 205 33t191 92q-4 170 -37 282t-87 178.5t-126 93t-152 26.5q-166 0 -259 -94.5t-93 -259.5z" />
<glyph unicode=":" horiz-adv-x="557" d="M92 0zM92 84q0 51 37 88t88 37q53 0 89 -36t36 -89q0 -51 -36 -88t-89 -37q-51 0 -88 37t-37 88zM92 698q0 51 37 88t88 37q53 0 89 -36t36 -89q0 -51 -36 -88t-89 -37q-51 0 -88 37t-37 88z" />
<glyph unicode=";" horiz-adv-x="557" d="M92 0zM92 82q0 51 37 89t88 38q53 0 89 -37t36 -90q0 -96 -45 -181t-123 -157l-76 66q43 41 72 76.5t47 70.5q-53 2 -89 38t-36 87zM92 698q0 51 37 88t88 37q53 0 89 -36t36 -89q0 -51 -36 -88t-89 -37q-51 0 -88 37t-37 88z" />
<glyph unicode="&#x3c;" horiz-adv-x="1224" d="M102 676v82l969 536v-135l-575 -319l-263 -123l263 -123l575 -318v-135z" />
<glyph unicode="=" horiz-adv-x="1230" d="M154 475v119h923v-119h-923zM154 840v118h923v-118h-923z" />
<glyph unicode="&#x3e;" horiz-adv-x="1224" d="M154 141v135l575 318l262 123l-262 123l-575 319v135l968 -536v-82z" />
<glyph unicode="?" horiz-adv-x="1132" d="M86 1350q86 66 204 99.5t236 33.5q92 0 180.5 -22.5t157 -73t109.5 -129t41 -191.5q0 -100 -34 -169t-90 -114t-129 -71.5t-151 -44.5l-8 -361h-82l-14 463l112 23q53 10 102.5 30.5t87.5 54t60.5 82t22.5 115.5q0 78 -31 132.5t-82 88t-116.5 49t-135.5 15.5 q-102 0 -201.5 -30t-172.5 -87zM449 66q0 45 30.5 75.5t75.5 30.5t76 -30.5t31 -75.5t-31 -76t-76 -31t-75.5 30.5t-30.5 76.5z" />
<glyph unicode="@" horiz-adv-x="1536" d="M92 723q0 395 179.5 577.5t525.5 182.5q174 0 297 -44t200.5 -127t113.5 -203t36 -273q0 -139 -26.5 -234.5t-69.5 -155t-99.5 -85t-118.5 -25.5q-59 0 -102 20.5t-80 61.5q-43 -41 -94 -61.5t-117 -20.5q-135 0 -214 92t-79 287t79 287t214 92q70 0 122 -23.5t95 -66.5 l13 71h98v-600q41 -25 86 -18.5t83 49.5t62.5 125t24.5 209q0 123 -27.5 220t-90 164.5t-163 103.5t-243.5 36q-291 0 -436.5 -152.5t-145.5 -484.5q0 -344 156.5 -500.5t468.5 -156.5q152 0 277.5 30.5t215.5 77.5l53 -110q-102 -49 -238 -83t-310 -34q-367 0 -556.5 184 t-189.5 588zM567 715q0 -260 176 -260q53 0 103.5 23.5t95.5 76.5v319q-45 53 -96 77t-103 24q-176 0 -176 -260z" />
<glyph unicode="A" horiz-adv-x="1587" d="M39 1036q0 86 29.5 159t98.5 126t180.5 83t277.5 30h374l588 -1434h-131l-133 330h-729l-133 -330h-131l538 1315h-243q-133 0 -222.5 -21.5t-142.5 -58.5t-75.5 -88t-22.5 -111q0 -51 18.5 -97t55 -80t94 -54.5t135.5 -20.5v-118q-109 0 -189.5 29.5t-133 79.5t-78 118 t-25.5 143zM641 449h633l-232 573l-84 242l-84 -242z" />
<glyph unicode="B" horiz-adv-x="1646" d="M39 1036q0 86 29.5 159t98.5 125t180.5 83t275.5 31h419q94 0 180.5 -21.5t151 -67t102 -117t37.5 -171.5q0 -127 -59 -209t-158 -123q117 -39 187.5 -124t70.5 -224q0 -100 -37.5 -172t-102 -117t-150.5 -66.5t-181 -21.5h-460v1315q-133 0 -221.5 -21.5t-141.5 -58.5 t-75.5 -88t-22.5 -111q0 -51 18.5 -97t55 -80t94 -54.5t135.5 -20.5v-118q-109 0 -189.5 29.5t-133 79.5t-78 118t-25.5 143zM745 123h338q72 0 135.5 13.5t110.5 44t75 78.5t28 118t-28 123t-76 88t-111.5 52t-133.5 17h-338v-534zM745 776h297q70 0 133.5 17.5t111.5 52.5 t76 87t28 124q0 70 -28 118t-75 78.5t-110.5 44t-135.5 13.5h-297v-535z" />
<glyph unicode="C" horiz-adv-x="1228" d="M92 727q0 193 42 335t117 235.5t176 139.5t218 46q104 0 196.5 -37t161 -110.5t107.5 -187.5t39 -267h-123q0 123 -29.5 214t-81 150.5t-121 89t-149.5 29.5q-92 0 -170 -39t-136 -118t-91 -197.5t-33 -280.5q0 -170 37 -295t102.5 -206t157.5 -119.5t201 -38.5 q104 0 193 31.5t159 80.5l74 -98q-84 -59 -191.5 -96t-236.5 -37q-135 0 -249 46t-196 141t-128 241.5t-46 347.5z" />
<glyph unicode="D" horiz-adv-x="1738" d="M39 1036q0 86 29.5 159t98.5 126t180.5 83t277.5 30h370q139 0 259 -43t207 -131.5t136.5 -223.5t49.5 -319t-49.5 -319.5t-136.5 -223.5t-206.5 -131t-259.5 -43h-370v1315q-133 0 -222.5 -21.5t-142.5 -58.5t-75.5 -88t-22.5 -111q0 -51 18.5 -97t55 -80t94 -54.5 t135.5 -20.5v-118q-109 0 -189.5 29.5t-133 79.5t-78 118t-25.5 143zM748 119h247q113 0 210.5 35.5t168 109.5t110.5 186.5t40 266.5t-40 266.5t-110.5 186t-168 109.5t-210.5 36h-247v-1196z" />
<glyph unicode="E" horiz-adv-x="1579" d="M39 1036q0 86 29.5 159t98.5 126t180.5 83t277.5 30h850v-119h-727v-539h624v-119h-624v-538h727v-119h-850v1315q-133 0 -222.5 -21.5t-142.5 -58.5t-75.5 -88t-22.5 -111q0 -51 18.5 -97t55 -80t94 -54.5t135.5 -20.5v-118q-109 0 -189.5 29.5t-133 79.5t-78 118 t-25.5 143z" />
<glyph unicode="F" horiz-adv-x="1544" d="M39 1036q0 86 29.5 159t98.5 126t180.5 83t277.5 30h850v-119h-727v-539h624v-119h-624v-657h-123v1315q-133 0 -222.5 -21.5t-142.5 -58.5t-75.5 -88t-22.5 -111q0 -51 18.5 -97t55 -80t94 -54.5t135.5 -20.5v-118q-109 0 -189.5 29.5t-133 79.5t-78 118t-25.5 143z" />
<glyph unicode="G" horiz-adv-x="1310" d="M92 725q0 193 44 336t125 236.5t192.5 139.5t246.5 46q129 0 242 -37t201 -96l-68 -105q-70 55 -170 85t-209 30q-106 0 -191 -33t-145.5 -108.5t-92 -197.5t-31.5 -302q0 -184 33.5 -308t95 -199t147.5 -106.5t190 -31.5q199 0 324 94v2v487h-344v121h487v-780h-55 l-31 61q-76 -47 -169 -77.5t-207 -30.5q-133 0 -246 46t-195 141t-128 241.5t-46 345.5z" />
<glyph unicode="H" horiz-adv-x="1783" d="M39 1036q0 86 29.5 159t98.5 126t180.5 83t277.5 30h123v-658h759v658h123v-1434h-123v657h-759v-657h-123v1315q-133 0 -222.5 -21.5t-142.5 -58.5t-75.5 -88t-22.5 -111q0 -51 18.5 -97t55 -80t94 -54.5t135.5 -20.5v-118q-109 0 -189.5 29.5t-133 79.5t-78 118 t-25.5 143z" />
<glyph unicode="I" horiz-adv-x="901" d="M39 1036q0 86 29.5 159t98.5 126t180.5 83t277.5 30h123v-1434h-123v1315q-133 0 -222.5 -21.5t-142.5 -58.5t-75.5 -88t-22.5 -111q0 -51 18.5 -97t55 -80t94 -54.5t135.5 -20.5v-118q-109 0 -189.5 29.5t-133 79.5t-78 118t-25.5 143z" />
<glyph unicode="J" horiz-adv-x="886" d="M39 1036q0 86 29.5 159t98.5 125t180.5 83t275.5 31h122v-983q0 -121 -28.5 -211t-79.5 -149.5t-122 -89.5t-157 -30q-66 0 -131 15.5t-125 38.5l41 116q51 -20 108.5 -33.5t106.5 -13.5q121 0 193 88t72 269v864q-133 0 -221.5 -21.5t-141.5 -58.5t-75.5 -88t-22.5 -111 q0 -51 18.5 -97t55 -80t94 -54.5t135.5 -20.5v-118q-109 0 -189.5 29.5t-133 79.5t-78 118t-25.5 143z" />
<glyph unicode="K" horiz-adv-x="1619" d="M39 1036q0 86 29.5 159t98.5 126t180.5 83t277.5 30h123v-684l669 684h166l-702 -717l702 -717h-166l-669 682v-682h-123v1315q-133 0 -222.5 -21.5t-142.5 -58.5t-75.5 -88t-22.5 -111q0 -51 18.5 -97t55 -80t94 -54.5t135.5 -20.5v-118q-109 0 -189.5 29.5t-133 79.5 t-78 118t-25.5 143z" />
<glyph unicode="L" horiz-adv-x="1406" d="M39 1036q0 86 29.5 159t98.5 126t180.5 83t277.5 30h123v-1315h624v-119h-747v1315q-133 0 -222.5 -21.5t-142.5 -58.5t-75.5 -88t-22.5 -111q0 -51 18.5 -97t55 -80t94 -54.5t135.5 -20.5v-118q-109 0 -189.5 29.5t-133 79.5t-78 118t-25.5 143z" />
<glyph unicode="M" horiz-adv-x="2088" d="M39 1036q0 86 29.5 159t98.5 126t180.5 83t277.5 30h82l573 -912l573 912h82v-1434h-123v1145l-491 -776h-82l-491 776v-1145h-123v1315q-133 0 -222.5 -21.5t-142.5 -58.5t-75.5 -88t-22.5 -111q0 -51 18.5 -97t55 -80t94 -54.5t135.5 -20.5v-118q-109 0 -189.5 29.5 t-133 79.5t-78 118t-25.5 143z" />
<glyph unicode="N" horiz-adv-x="1783" d="M39 1036q0 86 29.5 159t98.5 126t180.5 83t277.5 30h82l800 -1164v1164h123v-1434h-82l-800 1163v-1163h-123v1315q-133 0 -222.5 -21.5t-142.5 -58.5t-75.5 -88t-22.5 -111q0 -51 18.5 -97t55 -80t94 -54.5t135.5 -20.5v-118q-109 0 -189.5 29.5t-133 79.5t-78 118 t-25.5 143z" />
<glyph unicode="O" d="M92 717q0 197 45 341t125 238.5t188.5 140.5t235.5 46t235.5 -46t188.5 -140.5t125 -239t45 -340.5q0 -197 -45 -341.5t-125 -238.5t-188.5 -140t-235.5 -46t-235.5 46t-188.5 140t-125 238.5t-45 341.5zM215 717q0 -166 36 -288t98.5 -202t148.5 -118.5t188 -38.5 q100 0 187.5 38.5t149.5 118.5t98 202t36 288t-36 287.5t-98 201.5t-149.5 119t-187.5 39q-102 0 -188 -39t-148.5 -119t-98.5 -201.5t-36 -287.5z" />
<glyph unicode="P" horiz-adv-x="1601" d="M39 1036q0 86 29.5 159t98.5 126t180.5 83t277.5 30h460q94 0 180.5 -28t151 -86t102 -147.5t37.5 -211.5q0 -123 -36.5 -212.5t-101 -145.5t-149.5 -83.5t-184 -27.5h-337v-492h-123v1315q-133 0 -222.5 -21.5t-142.5 -58.5t-75.5 -88t-22.5 -111q0 -51 18.5 -97t55 -80 t94 -54.5t135.5 -20.5v-118q-109 0 -189.5 29.5t-133 79.5t-78 118t-25.5 143zM748 610h337q72 0 135.5 20.5t110.5 63.5t75 108.5t28 158.5q0 92 -28 158.5t-76 109.5t-111.5 64.5t-133.5 21.5h-337v-705z" />
<glyph unicode="Q" horiz-adv-x="1374" d="M92 717q0 197 45 341t125 238.5t188.5 140.5t235.5 46t235.5 -46t188.5 -140.5t125 -239t45 -340.5q0 -248 -69.5 -412t-190.5 -252q47 -92 116.5 -157.5t145.5 -106.5l-57 -108q-86 47 -168 123.5t-139 191.5q-104 -45 -232 -45q-127 0 -235.5 46t-188.5 140t-125 238.5 t-45 341.5zM215 717q0 -166 36 -288t98.5 -202t148.5 -118.5t188 -38.5q100 0 187.5 38.5t149.5 118.5t98 202t36 288t-36 287.5t-98 201.5t-149.5 119t-187.5 39q-102 0 -188 -39t-148.5 -119t-98.5 -201.5t-36 -287.5z" />
<glyph unicode="R" horiz-adv-x="1624" d="M39 1036q0 86 29.5 159t98.5 126t180.5 83t277.5 30h460q94 0 180.5 -28t151 -86t102 -147.5t37.5 -211.5q0 -98 -23.5 -174t-65.5 -131.5t-100 -91.5t-128 -54l330 -510h-139l-322 492h-23h-337v-492h-123v1315q-133 0 -222.5 -21.5t-142.5 -58.5t-75.5 -88t-22.5 -111 q0 -51 18.5 -97t55 -80t94 -54.5t135.5 -20.5v-118q-109 0 -189.5 29.5t-133 79.5t-78 118t-25.5 143zM748 610h337q72 0 135.5 20.5t110.5 63.5t75 108.5t28 158.5q0 92 -28 158.5t-76 109.5t-111.5 64.5t-133.5 21.5h-337v-705z" />
<glyph unicode="S" horiz-adv-x="1153" d="M59 104l66 109q78 -63 194.5 -101t233.5 -38q80 0 151.5 18.5t126 57t87 95t32.5 134.5q0 63 -24.5 106t-72.5 74t-121 52.5t-171 43.5q-94 20 -178 44t-147.5 66t-100.5 108.5t-37 173.5q0 111 41 193.5t109.5 136t158 80t185.5 26.5q55 0 114.5 -8.5t118 -25.5 t112.5 -42t99 -57l-65 -107q-76 57 -178.5 87t-198.5 30q-74 0 -140.5 -18.5t-118.5 -57.5t-83 -96.5t-31 -132.5q0 -74 27.5 -120t75 -76t109 -47t128.5 -32q86 -18 177 -38.5t166 -61.5t122 -110.5t47 -186.5q0 -111 -43 -191.5t-115.5 -134t-167 -80t-194.5 -26.5 q-135 0 -267 42t-227 111z" />
<glyph unicode="T" horiz-adv-x="1447" d="M39 1036q0 86 29.5 159t98.5 126t180.5 83t277.5 30h784v-119h-430v-1315h-123v1315h-231q-133 0 -222.5 -21.5t-142.5 -58.5t-75.5 -88t-22.5 -111q0 -51 18.5 -97t55 -80t94 -54.5t135.5 -20.5v-118q-109 0 -189.5 29.5t-133 79.5t-78 118t-25.5 143z" />
<glyph unicode="U" horiz-adv-x="1798" d="M39 1036q0 86 29.5 159t98.5 126t180.5 83t277.5 30h123v-957q0 -102 32.5 -179t88 -127t126 -75.5t146.5 -25.5t146.5 25.5t125.5 75.5t88 127t33 179v957h123v-957q0 -133 -43 -231.5t-115 -164t-165 -98t-193 -32.5t-193.5 32.5t-165 98t-114.5 164t-43 231.5v838 q-133 0 -222.5 -21.5t-142.5 -58.5t-75.5 -88t-22.5 -111q0 -51 18.5 -97t55 -80t94 -54.5t135.5 -20.5v-118q-109 0 -189.5 29.5t-133 79.5t-78 118t-25.5 143z" />
<glyph unicode="V" horiz-adv-x="1746" d="M39 1036q0 86 32.5 159t100.5 126t170 83t242 30h37l413 -1022l84 -242l84 242l414 1022h131l-588 -1434h-82l-538 1313q-109 -6 -181.5 -29.5t-115.5 -60.5t-61.5 -84t-18.5 -103q0 -51 18.5 -97t55 -80t94 -54.5t135.5 -20.5v-118q-109 0 -189.5 29.5t-133 79.5 t-78 118t-25.5 143z" />
<glyph unicode="W" horiz-adv-x="2084" d="M39 1036q0 86 32.5 159t100.5 126t170 83t242 30h41l243 -897l64 -293l67 293l263 897h81l263 -897l67 -293l64 293l223 897h125l-367 -1434h-82l-250 856l-83 334l-84 -334l-250 -856h-82l-357 1311q-104 -6 -174.5 -30t-113.5 -60.5t-61.5 -83.5t-18.5 -101 q0 -51 18.5 -97t55 -80t94 -54.5t135.5 -20.5v-118q-109 0 -189.5 29.5t-133 79.5t-78 118t-25.5 143z" />
<glyph unicode="X" horiz-adv-x="1564" d="M39 1036q0 86 32.5 159t100.5 126t170 83t242 30h14l381 -578l383 578h143l-454 -686l495 -748h-143l-424 639l-422 -639h-143l493 748l-372 563q-106 -6 -178 -30t-115 -59.5t-61.5 -82.5t-18.5 -103q0 -51 18.5 -97t55 -80t94 -54.5t135.5 -20.5v-118 q-109 0 -189.5 29.5t-133 79.5t-78 118t-25.5 143z" />
<glyph unicode="Y" horiz-adv-x="1613" d="M39 1036q0 86 32.5 159t100.5 126t170 83t242 30h14l440 -799l441 799h135l-514 -934v-500h-123v500l-447 811q-104 -6 -174.5 -30t-113.5 -60.5t-61.5 -83.5t-18.5 -101q0 -51 18.5 -97t55 -80t94 -54.5t135.5 -20.5v-118q-109 0 -189.5 29.5t-133 79.5t-78 118 t-25.5 143z" />
<glyph unicode="Z" horiz-adv-x="1347" d="M49 0v78l725 1237h-725v119h889v-78l-725 -1237h510q133 0 222 21.5t142.5 58.5t76 88t22.5 110q0 51 -18.5 97.5t-55.5 80t-94 54t-135 20.5v119q109 0 189.5 -29.5t132.5 -80t78 -118t26 -143.5q0 -86 -30 -158.5t-98.5 -126t-180 -83t-277.5 -29.5h-674z" />
<glyph unicode="[" horiz-adv-x="698" d="M154 -113v1659h440v-119h-318v-1421h318v-119h-440z" />
<glyph unicode="\" horiz-adv-x="792" d="M0 1434h125l668 -1434h-125z" />
<glyph unicode="]" horiz-adv-x="698" d="M104 6h318v1421h-318v119h441v-1659h-441v119z" />
<glyph unicode="_" horiz-adv-x="1126" d="M0 -205h1128v-119h-1128v119z" />
<glyph unicode="`" horiz-adv-x="800" d="M207 1657l78 104l348 -188l-21 -41z" />
<glyph unicode="a" horiz-adv-x="1257" d="M0 0l588 1434h82l587 -1434h-131l-133 330h-729l-133 -330h-131zM311 449h633l-231 573l-84 242l-84 -242z" />
<glyph unicode="b" horiz-adv-x="1177" d="M154 0v1434h419q94 0 180.5 -21.5t151 -67t102 -117t37.5 -171.5q0 -127 -59 -209t-158 -123q117 -39 187.5 -124t70.5 -224q0 -100 -37.5 -172t-102 -117t-150.5 -66.5t-181 -21.5h-460zM276 123h338q72 0 135.5 13.5t110.5 44t75 78.5t28 118t-28 123t-76 88t-111.5 52 t-133.5 17h-338v-534zM276 776h297q70 0 133.5 17.5t111.5 52.5t76 87t28 124q0 70 -28 118t-75 78.5t-110.5 44t-135.5 13.5h-297v-535z" />
<glyph unicode="c" horiz-adv-x="1228" d="M92 727q0 193 42 335t117 235.5t176 139.5t218 46q104 0 196.5 -37t161 -110.5t107.5 -187.5t39 -267h-123q0 123 -29.5 214t-81 150.5t-121 89t-149.5 29.5q-92 0 -170 -39t-136 -118t-91 -197.5t-33 -280.5q0 -170 37 -295t102.5 -206t157.5 -119.5t201 -38.5 q104 0 193 31.5t159 80.5l74 -98q-84 -59 -191.5 -96t-236.5 -37q-135 0 -249 46t-196 141t-128 241.5t-46 347.5z" />
<glyph unicode="d" horiz-adv-x="1267" d="M154 0v1434h370q139 0 259 -43t207 -131.5t136.5 -223.5t49.5 -319t-49.5 -319.5t-136.5 -223.5t-206.5 -131t-259.5 -43h-370zM276 119h248q113 0 210 35.5t168 109.5t111 186.5t40 266.5t-40 266.5t-111 186t-168 109.5t-210 36h-248v-1196z" />
<glyph unicode="e" horiz-adv-x="1107" d="M154 0v1434h850v-119h-728v-539h625v-119h-625v-538h728v-119h-850z" />
<glyph unicode="f" horiz-adv-x="1073" d="M154 0v1434h850v-119h-728v-539h625v-119h-625v-657h-122z" />
<glyph unicode="g" horiz-adv-x="1310" d="M92 725q0 193 44 336t125 236.5t192.5 139.5t246.5 46q129 0 242 -37t201 -96l-68 -105q-70 55 -170 85t-209 30q-106 0 -191 -33t-145.5 -108.5t-92 -197.5t-31.5 -302q0 -184 33.5 -308t95 -199t147.5 -106.5t190 -31.5q199 0 324 94v2v487h-344v121h487v-780h-55 l-31 61q-76 -47 -169 -77.5t-207 -30.5q-133 0 -246 46t-195 141t-128 241.5t-46 345.5z" />
<glyph unicode="h" horiz-adv-x="1312" d="M154 0v1434h122v-658h760v658h123v-1434h-123v657h-760v-657h-122z" />
<glyph unicode="i" horiz-adv-x="430" d="M154 0v1434h122v-1434h-122z" />
<glyph unicode="j" horiz-adv-x="794" d="M10 25l41 116q51 -20 108.5 -33.5t106.5 -13.5q121 0 192.5 88t71.5 269v983h123v-983q0 -121 -28.5 -211t-79.5 -149.5t-122 -89.5t-157 -30q-66 0 -131 15.5t-125 38.5z" />
<glyph unicode="k" horiz-adv-x="1148" d="M154 0v1434h122v-684l670 684h166l-702 -717l702 -717h-166l-670 682v-682h-122z" />
<glyph unicode="l" horiz-adv-x="935" d="M154 0v1434h122v-1315h625v-119h-747z" />
<glyph unicode="m" horiz-adv-x="1617" d="M154 0v1434h82l573 -912l573 912h82v-1434h-123v1145l-491 -776h-82l-492 776v-1145h-122z" />
<glyph unicode="n" horiz-adv-x="1312" d="M154 0v1434h82l800 -1164v1164h123v-1434h-82l-801 1163v-1163h-122z" />
<glyph unicode="o" d="M92 717q0 197 45 341t125 238.5t188.5 140.5t235.5 46t235.5 -46t188.5 -140.5t125 -239t45 -340.5q0 -197 -45 -341.5t-125 -238.5t-188.5 -140t-235.5 -46t-235.5 46t-188.5 140t-125 238.5t-45 341.5zM215 717q0 -166 36 -288t98.5 -202t148.5 -118.5t188 -38.5 q100 0 187.5 38.5t149.5 118.5t98 202t36 288t-36 287.5t-98 201.5t-149.5 119t-187.5 39q-102 0 -188 -39t-148.5 -119t-98.5 -201.5t-36 -287.5z" />
<glyph unicode="p" horiz-adv-x="1130" d="M154 0v1434h460q94 0 180.5 -28t151 -86t102 -147.5t37.5 -211.5q0 -123 -36.5 -212.5t-101 -145.5t-149.5 -83.5t-184 -27.5h-338v-492h-122zM276 610h338q72 0 135.5 20.5t110.5 63.5t75 108.5t28 158.5q0 92 -28 158.5t-76 109.5t-111.5 64.5t-133.5 21.5h-338v-705z " />
<glyph unicode="q" horiz-adv-x="1374" d="M92 717q0 197 45 341t125 238.5t188.5 140.5t235.5 46t235.5 -46t188.5 -140.5t125 -239t45 -340.5q0 -248 -69.5 -412t-190.5 -252q47 -92 116.5 -157.5t145.5 -106.5l-57 -108q-86 47 -168 123.5t-139 191.5q-104 -45 -232 -45q-127 0 -235.5 46t-188.5 140t-125 238.5 t-45 341.5zM215 717q0 -166 36 -288t98.5 -202t148.5 -118.5t188 -38.5q100 0 187.5 38.5t149.5 118.5t98 202t36 288t-36 287.5t-98 201.5t-149.5 119t-187.5 39q-102 0 -188 -39t-148.5 -119t-98.5 -201.5t-36 -287.5z" />
<glyph unicode="r" horiz-adv-x="1155" d="M156 0v1434h460q94 0 180.5 -28t151 -86t102 -147.5t37.5 -211.5q0 -98 -23.5 -174t-65.5 -131.5t-100 -91.5t-128 -54l330 -510h-139l-322 492h-23h-337v-492h-123zM279 610h337q72 0 135.5 20.5t110.5 63.5t75 108.5t28 158.5q0 92 -28 158.5t-76 109.5t-111.5 64.5 t-133.5 21.5h-337v-705z" />
<glyph unicode="s" horiz-adv-x="1153" d="M59 104l66 109q78 -63 194.5 -101t233.5 -38q80 0 151.5 18.5t126 57t87 96t32.5 137.5q0 66 -23.5 107.5t-72.5 71.5t-122 50.5t-171 42.5q-94 20 -178 44t-147.5 65t-100.5 107.5t-37 172.5q0 113 41 196t109.5 136.5t158 80t185.5 26.5q109 0 227.5 -34t206.5 -99 l-65 -107q-74 57 -174.5 87t-192.5 30q-74 0 -140.5 -18.5t-118.5 -56.5t-83 -96.5t-31 -135.5q0 -72 26.5 -119t73 -76t107.5 -46t133 -32q86 -16 177 -36.5t166 -62.5t122 -111.5t47 -186.5q0 -111 -43 -191.5t-115.5 -134t-167 -80t-194.5 -26.5q-135 0 -267 42t-227 111 z" />
<glyph unicode="t" horiz-adv-x="1060" d="M39 1315v119h983v-119h-430v-1315h-123v1315h-430z" />
<glyph unicode="u" horiz-adv-x="1314" d="M141 477v957h123v-957q0 -102 33 -179t88 -127t126 -75.5t146 -25.5q76 0 146.5 25.5t126 75.5t88.5 127t33 179v957h123v-957q0 -133 -43.5 -231.5t-115 -164t-164.5 -98t-194 -32.5q-100 0 -193 32.5t-165 98t-115 164t-43 231.5z" />
<glyph unicode="v" horiz-adv-x="1257" d="M0 1434h131l414 -1022l84 -242l84 242l413 1022h131l-587 -1434h-82z" />
<glyph unicode="w" horiz-adv-x="1585" d="M0 1434h125l244 -897l63 -293l68 293l262 897h82l262 -897l68 -293l63 293l223 897h125l-366 -1434h-82l-250 856l-84 334l-84 -334l-250 -856h-82z" />
<glyph unicode="x" horiz-adv-x="1169" d="M18 0l494 748l-453 686h144l381 -578l383 578h143l-455 -686l496 -748h-143l-424 639l-422 -639h-144z" />
<glyph unicode="y" horiz-adv-x="1150" d="M0 1434h135l440 -799l441 799h135l-514 -934v-500h-123v500z" />
<glyph unicode="z" horiz-adv-x="1013" d="M49 0v78l725 1237h-725v119h889v-78l-725 -1237h725v-119h-889z" />
<glyph unicode="{" horiz-adv-x="821" d="M102 662v110h68q57 0 91 31t50.5 71.5t20.5 85t4 72.5q4 100 13 193.5t42 164t97.5 113.5t179.5 43v-119q-78 0 -120 -30.5t-60.5 -83.5t-22.5 -125t-6 -154q-2 -41 -6 -90t-18.5 -95t-43.5 -82t-80 -50q51 -14 80 -50t43.5 -82t18.5 -95.5t6 -90.5q2 -82 6 -153.5 t22.5 -124.5t60.5 -84t120 -31v-119q-115 0 -179.5 43t-97.5 114t-42 164t-13 193q0 27 -4 72t-20.5 86t-50.5 72t-91 31h-68z" />
<glyph unicode="|" horiz-adv-x="389" d="M133 -307v2048h123v-2048h-123z" />
<glyph unicode="}" horiz-adv-x="821" d="M154 6q76 0 117.5 30t60 82t22.5 123.5t8 157.5q2 41 6.5 90.5t17.5 95.5t42 81.5t80 50.5q-51 14 -80 50t-42 82t-17 95t-7 90q-4 86 -8 158t-22.5 124t-60.5 81.5t-117 29.5v119q113 0 178 -43t98 -113.5t42 -163.5t13 -194q0 -29 4.5 -73t20.5 -84.5t49 -71.5t92 -31 h68v-110h-68q-59 0 -92 -31t-49 -72t-20.5 -86t-4.5 -72q-4 -100 -13 -193t-42 -164t-98.5 -114t-177.5 -43v119z" />
<glyph unicode="&#xa1;" horiz-adv-x="450" d="M113 1368q0 45 30.5 76t75.5 31t76 -31t31 -76t-31 -75.5t-76 -30.5t-75.5 30.5t-30.5 75.5zM133 0l51 1126h82l51 -1126h-184z" />
<glyph unicode="&#xa5;" horiz-adv-x="1150" d="M0 1434h135l440 -799l441 799h135l-459 -832h344v-102h-399v-205h399v-102h-399v-193h-123v193h-401v102h401v205h-401v102h344z" />
<glyph unicode="&#xa8;" horiz-adv-x="765" d="M154 1597q0 33 23.5 57.5t58.5 24.5q33 0 57 -23.5t24 -58.5t-23 -58t-58 -23q-37 0 -59.5 23.5t-22.5 57.5zM449 1597q0 33 23.5 57.5t57.5 24.5q37 0 59.5 -23.5t22.5 -58.5t-23.5 -58t-58.5 -23t-58 23.5t-23 57.5z" />
<glyph unicode="&#xa9;" horiz-adv-x="1658" d="M92 717q0 156 55.5 294t153.5 241.5t233.5 163t294.5 59.5q160 0 295.5 -59.5t233.5 -163t153.5 -242t55.5 -293.5q0 -158 -55.5 -295t-153.5 -240.5t-233.5 -163t-295.5 -59.5t-295 59.5t-233 163t-153.5 240.5t-55.5 295zM215 717q0 -133 43 -249t123 -203t193.5 -137 t254.5 -50t255 50t194 137t123 203t43 249q0 131 -43 247.5t-123 203.5t-194 137.5t-255 50.5t-254.5 -50.5t-193.5 -137.5t-123 -203.5t-43 -247.5zM494 723q0 117 26.5 202t73.5 140t111.5 83t140.5 28q66 0 124 -21.5t101 -67t68.5 -113t25.5 -159.5h-129 q0 127 -54 183.5t-136 56.5q-98 0 -160.5 -78t-62.5 -252q0 -94 18 -159.5t52 -107.5t82 -60.5t106 -18.5q66 0 118 19.5t93 54.5l73 -97q-55 -45 -125.5 -71.5t-158.5 -26.5q-84 0 -155 27.5t-123 84t-80.5 144.5t-28.5 209z" />
<glyph unicode="&#xab;" horiz-adv-x="1007" d="M92 717l387 516h146l-387 -516l387 -516h-146zM424 717l346 459h145l-344 -459l344 -459h-145z" />
<glyph unicode="&#xad;" horiz-adv-x="821" d="M154 657v119h514v-119h-514z" />
<glyph unicode="&#xae;" horiz-adv-x="1658" d="M92 717q0 156 55.5 294t153.5 241.5t233.5 163t294.5 59.5q160 0 295.5 -59.5t233.5 -163t153.5 -242t55.5 -293.5q0 -158 -55.5 -295t-153.5 -240.5t-233.5 -163t-295.5 -59.5t-295 59.5t-233 163t-153.5 240.5t-55.5 295zM215 717q0 -133 43 -249t123 -203t193.5 -137 t254.5 -50t255 50t194 137t123 203t43 249q0 131 -43 247.5t-123 203.5t-194 137.5t-255 50.5t-254.5 -50.5t-193.5 -137.5t-123 -203.5t-43 -247.5zM545 287v860h313q57 0 108.5 -16.5t90.5 -52.5t61.5 -89t22.5 -127q0 -113 -51.5 -178.5t-131.5 -87.5l197 -309h-147 l-185 295h-149v-295h-129zM674 702h184q61 0 107.5 35t46.5 125q0 92 -46 128t-108 36h-184v-324z" />
<glyph unicode="&#xaf;" horiz-adv-x="831" d="M82 1546v103h668v-103h-668z" />
<glyph unicode="&#xb0;" horiz-adv-x="778" d="M82 1167q0 63 24.5 118.5t65.5 97.5t97.5 67t119.5 25t119.5 -25t97.5 -66t65.5 -97t24.5 -120q0 -63 -24.5 -119.5t-65.5 -97.5t-97.5 -65.5t-119.5 -24.5t-119.5 24.5t-97.5 65.5t-65.5 97.5t-24.5 119.5zM184 1167q0 -43 16.5 -80.5t44 -66.5t64.5 -45.5t80 -16.5 t80 16.5t64.5 45.5t44 66.5t16.5 80.5t-16.5 81t-44 66.5t-64.5 45t-80 16.5t-80 -16.5t-64.5 -45t-44 -66.5t-16.5 -81z" />
<glyph unicode="&#xb4;" horiz-adv-x="800" d="M207 1573l348 188l78 -104l-406 -125z" />
<glyph unicode="&#xb8;" horiz-adv-x="585" d="M154 -348l39 74q12 -6 28.5 -17.5t42.5 -11.5q27 0 43.5 13.5t16.5 35.5q0 29 -28 41t-58 27l-23 10l59 178h66l-31 -108l21 -9q41 -16 71.5 -50t30.5 -91q0 -70 -47 -105.5t-113 -35.5q-45 0 -69.5 14t-48.5 35z" />
<glyph unicode="&#xbb;" horiz-adv-x="1007" d="M92 258l344 459l-344 459h146l346 -459l-346 -459h-146zM383 201l387 516l-387 516h145l387 -516l-387 -516h-145z" />
<glyph unicode="&#xbf;" horiz-adv-x="1132" d="M86 375q0 100 34 168.5t90 113.5t129 72t150 45l9 361h82l14 -463l-113 -23q-53 -10 -102 -30.5t-87 -54.5t-60.5 -82t-22.5 -115q0 -78 30.5 -132.5t82 -88t117 -49t134.5 -15.5q102 0 201.5 29.5t173.5 87.5l66 -107q-86 -66 -204 -99.5t-237 -33.5q-92 0 -180 22.5 t-156.5 72.5t-109.5 129t-41 192zM438 1376q0 45 31 76t76 31t75.5 -31t30.5 -76t-30.5 -75.5t-75.5 -30.5t-76 30.5t-31 75.5z" />
<glyph unicode="&#xc0;" horiz-adv-x="1587" d="M39 0zM39 1036q0 86 29.5 159t98.5 126t180.5 83t277.5 30h374l588 -1434h-131l-133 330h-729l-133 -330h-131l538 1315h-243q-133 0 -222.5 -21.5t-142.5 -58.5t-75.5 -88t-22.5 -111q0 -51 18.5 -97t55 -80t94 -54.5t135.5 -20.5v-118q-109 0 -189.5 29.5t-133 79.5 t-78 118t-25.5 143zM580 1657l78 104l348 -188l-21 -41zM641 449h633l-232 573l-84 242l-84 -242z" />
<glyph unicode="&#xc1;" horiz-adv-x="1587" d="M39 0zM39 1036q0 86 29.5 159t98.5 126t180.5 83t277.5 30h374l588 -1434h-131l-133 330h-729l-133 -330h-131l538 1315h-243q-133 0 -222.5 -21.5t-142.5 -58.5t-75.5 -88t-22.5 -111q0 -51 18.5 -97t55 -80t94 -54.5t135.5 -20.5v-118q-109 0 -189.5 29.5t-133 79.5 t-78 118t-25.5 143zM641 449h633l-232 573l-84 242l-84 -242zM725 1573l348 188l78 -104l-406 -125z" />
<glyph unicode="&#xc2;" horiz-adv-x="1587" d="M39 0zM39 1036q0 86 29.5 159t98.5 126t180.5 83t277.5 30h374l588 -1434h-131l-133 330h-729l-133 -330h-131l538 1315h-243q-133 0 -222.5 -21.5t-142.5 -58.5t-75.5 -88t-22.5 -111q0 -51 18.5 -97t55 -80t94 -54.5t135.5 -20.5v-118q-109 0 -189.5 29.5t-133 79.5 t-78 118t-25.5 143zM641 449h633l-232 573l-84 242l-84 -242zM677 1536l164 201h107l164 -201h-78l-141 113l-142 -113h-74z" />
<glyph unicode="&#xc3;" horiz-adv-x="1587" d="M39 0zM39 1036q0 86 29.5 159t98.5 126t180.5 83t277.5 30h374l588 -1434h-131l-133 330h-729l-133 -330h-131l538 1315h-243q-133 0 -222.5 -21.5t-142.5 -58.5t-75.5 -88t-22.5 -111q0 -51 18.5 -97t55 -80t94 -54.5t135.5 -20.5v-118q-109 0 -189.5 29.5t-133 79.5 t-78 118t-25.5 143zM641 449h633l-232 573l-84 242l-84 -242zM716 1524q23 90 55.5 121.5t82.5 31.5q23 0 50 -10t56 -23.5t55.5 -23.5t46.5 -10q29 0 46.5 17.5t35.5 64.5l56 -15q-23 -90 -55.5 -121.5t-82.5 -31.5q-23 0 -50 10t-56 23.5t-55.5 23.5t-46.5 10 q-29 0 -46.5 -17.5t-35.5 -64.5z" />
<glyph unicode="&#xc4;" horiz-adv-x="1587" d="M39 0zM39 1036q0 86 29.5 159t98.5 126t180.5 83t277.5 30h374l588 -1434h-131l-133 330h-729l-133 -330h-131l538 1315h-243q-133 0 -222.5 -21.5t-142.5 -58.5t-75.5 -88t-22.5 -111q0 -51 18.5 -97t55 -80t94 -54.5t135.5 -20.5v-118q-109 0 -189.5 29.5t-133 79.5 t-78 118t-25.5 143zM641 449h633l-232 573l-84 242l-84 -242zM689 1597q0 33 23.5 57.5t58.5 24.5q33 0 57 -23.5t24 -58.5t-23 -58t-58 -23q-37 0 -59.5 23.5t-22.5 57.5zM984 1597q0 33 23.5 57.5t57.5 24.5q37 0 59.5 -23.5t22.5 -58.5t-23.5 -58t-58.5 -23t-58 23.5 t-23 57.5z" />
<glyph unicode="&#xc5;" horiz-adv-x="1587" d="M39 1036q0 86 29.5 159t98.5 126t180.5 83t277.5 30h239q-66 45 -65 133q0 70 46 116t116 46t115.5 -46.5t45.5 -115.5q0 -57 -30.5 -99.5t-83.5 -56.5l579 -1411h-131l-133 330h-729l-133 -330h-131l538 1315h-243q-133 0 -222.5 -21.5t-142.5 -58.5t-75.5 -88 t-22.5 -111q0 -51 18.5 -97t55 -80t94 -54.5t135.5 -20.5v-118q-109 0 -189.5 29.5t-133 79.5t-78 118t-25.5 143zM641 449h633l-232 573l-84 242l-84 -242zM879 1567q0 -35 23.5 -58.5t58.5 -23.5t58 23.5t23 58.5t-23.5 58.5t-57.5 23.5q-35 0 -58.5 -23.5t-23.5 -58.5z " />
<glyph unicode="&#xc6;" horiz-adv-x="1976" d="M39 1036q0 86 29.5 159t98.5 126t180.5 83t277.5 30h1247v-119h-604v-539h501v-119h-501v-538h604v-119h-727v330h-551l-133 -330h-131l538 1315h-243q-133 0 -222.5 -21.5t-142.5 -58.5t-75.5 -88t-22.5 -111q0 -51 18.5 -97t55 -80t94 -54.5t135.5 -20.5v-118 q-109 0 -189.5 29.5t-133 79.5t-78 118t-25.5 143zM641 449h504v866h-154z" />
<glyph unicode="&#xc7;" horiz-adv-x="1228" d="M92 729q0 193 42 334t117 234.5t176 139.5t222 46q102 0 193.5 -37t159 -110.5t107.5 -187.5t40 -267h-123q0 123 -29.5 214t-81 150.5t-120 89t-146.5 29.5q-94 0 -173 -39t-137 -118t-91 -197.5t-33 -280.5q0 -170 37 -295t102.5 -206t157.5 -119.5t201 -38.5 q104 0 193 31.5t159 80.5l74 -98q-84 -59 -191.5 -96t-236.5 -37q-14 0 -27.5 1t-26.5 1l-16 -59l21 -9q41 -16 71.5 -50t30.5 -91q0 -70 -47 -105.5t-113 -35.5q-45 0 -69.5 14t-49.5 35l39 74q12 -6 28.5 -17.5t43.5 -11.5t43 13.5t16 35.5q0 29 -27.5 41t-58.5 27l-22 10 l45 137q-111 18 -203 73.5t-158.5 151t-102.5 230.5t-36 313z" />
<glyph unicode="&#xc8;" horiz-adv-x="1579" d="M39 0zM39 1036q0 86 29.5 159t98.5 126t180.5 83t277.5 30h850v-119h-727v-539h624v-119h-624v-538h727v-119h-850v1315q-133 0 -222.5 -21.5t-142.5 -58.5t-75.5 -88t-22.5 -111q0 -51 18.5 -97t55 -80t94 -54.5t135.5 -20.5v-118q-109 0 -189.5 29.5t-133 79.5t-78 118 t-25.5 143zM762 1657l78 104l348 -188l-21 -41z" />
<glyph unicode="&#xc9;" horiz-adv-x="1579" d="M39 0zM39 1036q0 86 29.5 159t98.5 126t180.5 83t277.5 30h850v-119h-727v-539h624v-119h-624v-538h727v-119h-850v1315q-133 0 -222.5 -21.5t-142.5 -58.5t-75.5 -88t-22.5 -111q0 -51 18.5 -97t55 -80t94 -54.5t135.5 -20.5v-118q-109 0 -189.5 29.5t-133 79.5t-78 118 t-25.5 143zM858 1573l348 188l78 -104l-406 -125z" />
<glyph unicode="&#xca;" horiz-adv-x="1579" d="M39 0zM39 1036q0 86 29.5 159t98.5 126t180.5 83t277.5 30h850v-119h-727v-539h624v-119h-624v-538h727v-119h-850v1315q-133 0 -222.5 -21.5t-142.5 -58.5t-75.5 -88t-22.5 -111q0 -51 18.5 -97t55 -80t94 -54.5t135.5 -20.5v-118q-109 0 -189.5 29.5t-133 79.5t-78 118 t-25.5 143zM792 1536l164 201h107l164 -201h-78l-141 113l-142 -113h-74z" />
<glyph unicode="&#xcb;" horiz-adv-x="1579" d="M39 0zM39 1036q0 86 29.5 159t98.5 126t180.5 83t277.5 30h850v-119h-727v-539h624v-119h-624v-538h727v-119h-850v1315q-133 0 -222.5 -21.5t-142.5 -58.5t-75.5 -88t-22.5 -111q0 -51 18.5 -97t55 -80t94 -54.5t135.5 -20.5v-118q-109 0 -189.5 29.5t-133 79.5t-78 118 t-25.5 143zM844 1597q0 33 23.5 57.5t58.5 24.5q33 0 57 -23.5t24 -58.5t-23 -58t-58 -23q-37 0 -59.5 23.5t-22.5 57.5zM1139 1597q0 33 23.5 57.5t57.5 24.5q37 0 59.5 -23.5t22.5 -58.5t-23.5 -58t-58.5 -23t-58 23.5t-23 57.5z" />
<glyph unicode="&#xcc;" horiz-adv-x="907" d="M39 0zM39 1036q0 86 29.5 159t98.5 126t180.5 83t277.5 30h123v-1434h-123v1315q-133 0 -222.5 -21.5t-142.5 -58.5t-75.5 -88t-22.5 -111q0 -51 18.5 -97t55 -80t94 -54.5t135.5 -20.5v-118q-109 0 -189.5 29.5t-133 79.5t-78 118t-25.5 143zM328 1657l78 104l348 -188 l-21 -41z" />
<glyph unicode="&#xcd;" horiz-adv-x="976" d="M39 0zM39 1036q0 86 29.5 159t98.5 126t180.5 83t277.5 30h123v-1434h-123v1315q-133 0 -222.5 -21.5t-142.5 -58.5t-75.5 -88t-22.5 -111q0 -51 18.5 -97t55 -80t94 -54.5t135.5 -20.5v-118q-109 0 -189.5 29.5t-133 79.5t-78 118t-25.5 143zM477 1573l348 188l78 -104 l-406 -125z" />
<glyph unicode="&#xce;" horiz-adv-x="909" d="M39 0zM39 1036q0 86 29.5 159t98.5 126t180.5 83t277.5 30h123v-1434h-123v1315q-133 0 -222.5 -21.5t-142.5 -58.5t-75.5 -88t-22.5 -111q0 -51 18.5 -97t55 -80t94 -54.5t135.5 -20.5v-118q-109 0 -189.5 29.5t-133 79.5t-78 118t-25.5 143zM409 1536l164 201h107 l164 -201h-78l-141 113l-142 -113h-74z" />
<glyph unicode="&#xcf;" horiz-adv-x="960" d="M39 0zM39 1036q0 86 29.5 159t98.5 126t180.5 83t277.5 30h123v-1434h-123v1315q-133 0 -222.5 -21.5t-142.5 -58.5t-75.5 -88t-22.5 -111q0 -51 18.5 -97t55 -80t94 -54.5t135.5 -20.5v-118q-109 0 -189.5 29.5t-133 79.5t-78 118t-25.5 143zM457 1597q0 33 23.5 57.5 t58.5 24.5q33 0 57 -23.5t24 -58.5t-23 -58t-58 -23q-37 0 -59.5 23.5t-22.5 57.5zM752 1597q0 33 23.5 57.5t57.5 24.5q37 0 59.5 -23.5t22.5 -58.5t-23.5 -58t-58.5 -23t-58 23.5t-23 57.5z" />
<glyph unicode="&#xd0;" horiz-adv-x="1738" d="M39 0zM39 1036q0 86 29.5 159t98.5 126t180.5 83t277.5 30h370q139 0 259 -43t207 -131.5t136.5 -223.5t49.5 -319t-49.5 -319.5t-136.5 -223.5t-206.5 -131t-259.5 -43h-370v666h-160q-109 0 -189.5 29.5t-133 79.5t-78 118t-25.5 143zM162 1036q0 -51 18.5 -97t55 -80 t94 -54.5t135.5 -20.5h160v531q-133 0 -222.5 -21.5t-142.5 -58.5t-75.5 -88t-22.5 -111zM748 119h247q113 0 210.5 35.5t168 109.5t110.5 186.5t40 266.5t-40 266.5t-110.5 186t-168 109.5t-210.5 36h-247v-531h399v-118h-399v-547z" />
<glyph unicode="&#xd1;" horiz-adv-x="1783" d="M39 0zM39 1036q0 86 29.5 159t98.5 126t180.5 83t277.5 30h82l800 -1164v1164h123v-1434h-82l-800 1163v-1163h-123v1315q-133 0 -222.5 -21.5t-142.5 -58.5t-75.5 -88t-22.5 -111q0 -51 18.5 -97t55 -80t94 -54.5t135.5 -20.5v-118q-109 0 -189.5 29.5t-133 79.5 t-78 118t-25.5 143zM895 1524q23 90 55.5 121.5t82.5 31.5q23 0 50 -10t56 -23.5t55.5 -23.5t46.5 -10q29 0 46.5 17.5t35.5 64.5l56 -15q-23 -90 -55.5 -121.5t-82.5 -31.5q-23 0 -50 10t-56 23.5t-55.5 23.5t-46.5 10q-29 0 -46.5 -17.5t-35.5 -64.5z" />
<glyph unicode="&#xd2;" d="M92 0zM92 717q0 197 45 341t125 238.5t188.5 140.5t235.5 46t235.5 -46t188.5 -140.5t125 -239t45 -340.5q0 -197 -45 -341.5t-125 -238.5t-188.5 -140t-235.5 -46t-235.5 46t-188.5 140t-125 238.5t-45 341.5zM215 717q0 -166 36 -288t98.5 -202t148.5 -118.5t188 -38.5 q100 0 187.5 38.5t149.5 118.5t98 202t36 288t-36 287.5t-98 201.5t-149.5 119t-187.5 39q-102 0 -188 -39t-148.5 -119t-98.5 -201.5t-36 -287.5zM473 1657l78 104l348 -188l-21 -41z" />
<glyph unicode="&#xd3;" d="M92 0zM92 717q0 197 45 341t125 238.5t188.5 140.5t235.5 46t235.5 -46t188.5 -140.5t125 -239t45 -340.5q0 -197 -45 -341.5t-125 -238.5t-188.5 -140t-235.5 -46t-235.5 46t-188.5 140t-125 238.5t-45 341.5zM215 717q0 -166 36 -288t98.5 -202t148.5 -118.5t188 -38.5 q100 0 187.5 38.5t149.5 118.5t98 202t36 288t-36 287.5t-98 201.5t-149.5 119t-187.5 39q-102 0 -188 -39t-148.5 -119t-98.5 -201.5t-36 -287.5zM473 1573l348 188l78 -104l-406 -125z" />
<glyph unicode="&#xd4;" d="M92 0zM92 717q0 197 45 341t125 238.5t188.5 140.5t235.5 46t235.5 -46t188.5 -140.5t125 -239t45 -340.5q0 -197 -45 -341.5t-125 -238.5t-188.5 -140t-235.5 -46t-235.5 46t-188.5 140t-125 238.5t-45 341.5zM215 717q0 -166 36 -288t98.5 -202t148.5 -118.5t188 -38.5 q100 0 187.5 38.5t149.5 118.5t98 202t36 288t-36 287.5t-98 201.5t-149.5 119t-187.5 39q-102 0 -188 -39t-148.5 -119t-98.5 -201.5t-36 -287.5zM407 1536l164 201h107l164 -201h-78l-141 113l-142 -113h-74z" />
<glyph unicode="&#xd5;" d="M92 0zM92 717q0 197 45 341t125 238.5t188.5 140.5t235.5 46t235.5 -46t188.5 -140.5t125 -239t45 -340.5q0 -197 -45 -341.5t-125 -238.5t-188.5 -140t-235.5 -46t-235.5 46t-188.5 140t-125 238.5t-45 341.5zM215 717q0 -166 36 -288t98.5 -202t148.5 -118.5t188 -38.5 q100 0 187.5 38.5t149.5 118.5t98 202t36 288t-36 287.5t-98 201.5t-149.5 119t-187.5 39q-102 0 -188 -39t-148.5 -119t-98.5 -201.5t-36 -287.5zM444 1524q23 90 55.5 121.5t82.5 31.5q23 0 50 -10t56 -23.5t55.5 -23.5t46.5 -10q29 0 46.5 17.5t35.5 64.5l56 -15 q-23 -90 -55.5 -121.5t-82.5 -31.5q-23 0 -50 10t-56 23.5t-55.5 23.5t-46.5 10q-29 0 -46.5 -17.5t-35.5 -64.5z" />
<glyph unicode="&#xd6;" d="M92 0zM92 717q0 197 45 341t125 238.5t188.5 140.5t235.5 46t235.5 -46t188.5 -140.5t125 -239t45 -340.5q0 -197 -45 -341.5t-125 -238.5t-188.5 -140t-235.5 -46t-235.5 46t-188.5 140t-125 238.5t-45 341.5zM215 717q0 -166 36 -288t98.5 -202t148.5 -118.5t188 -38.5 q100 0 187.5 38.5t149.5 118.5t98 202t36 288t-36 287.5t-98 201.5t-149.5 119t-187.5 39q-102 0 -188 -39t-148.5 -119t-98.5 -201.5t-36 -287.5zM457 1597q0 33 23.5 57.5t58.5 24.5q33 0 57 -23.5t24 -58.5t-23 -58t-58 -23q-37 0 -59.5 23.5t-22.5 57.5zM752 1597 q0 33 23.5 57.5t57.5 24.5q37 0 59.5 -23.5t22.5 -58.5t-23.5 -58t-58.5 -23t-58 23.5t-23 57.5z" />
<glyph unicode="&#xd7;" horiz-adv-x="1304" d="M213 356l358 359l-358 360l78 78l358 -360l363 362l78 -78l-363 -362l363 -361l-78 -78l-363 361l-358 -358z" />
<glyph unicode="&#xd8;" horiz-adv-x="1351" d="M37 51l149 180q-49 92 -76.5 212t-27.5 274q0 197 45 341t125 238.5t188.5 140.5t235.5 46q123 0 229.5 -43t184.5 -133l131 155l94 -80l-152 -180q51 -92 79 -212t28 -273q0 -197 -45 -341.5t-125 -238.5t-188.5 -140t-235.5 -46q-125 0 -230.5 43t-185.5 133l-129 -156 zM205 717q0 -166 35.5 -288t98 -202t149 -118.5t188.5 -38.5q100 0 187 38.5t149.5 118.5t98.5 202t36 288t-36 287.5t-98.5 201.5t-149.5 119t-187 39q-102 0 -188.5 -39t-149 -119t-98 -201.5t-35.5 -287.5z" />
<glyph unicode="&#xd9;" horiz-adv-x="1798" d="M41 0zM41 1036q0 86 29.5 159t98.5 126t180.5 83t277.5 30h123v-957q0 -102 32.5 -179t88 -127t126 -75.5t146.5 -25.5t146.5 25.5t125.5 75.5t88 127t33 179v957h123v-957q0 -133 -43 -231.5t-115 -164t-165 -98t-193 -32.5t-193.5 32.5t-165 98t-114.5 164t-43 231.5 v838q-133 0 -222.5 -21.5t-142.5 -58.5t-75.5 -88t-22.5 -111q0 -51 18.5 -97t55 -80t94 -54.5t135.5 -20.5v-118q-109 0 -189.5 29.5t-133 79.5t-78 118t-25.5 143zM803 1657l78 104l348 -188l-21 -41z" />
<glyph unicode="&#xda;" horiz-adv-x="1798" d="M41 0zM41 1036q0 86 29.5 159t98.5 126t180.5 83t277.5 30h123v-957q0 -102 32.5 -179t88 -127t126 -75.5t146.5 -25.5t146.5 25.5t125.5 75.5t88 127t33 179v957h123v-957q0 -133 -43 -231.5t-115 -164t-165 -98t-193 -32.5t-193.5 32.5t-165 98t-114.5 164t-43 231.5 v838q-133 0 -222.5 -21.5t-142.5 -58.5t-75.5 -88t-22.5 -111q0 -51 18.5 -97t55 -80t94 -54.5t135.5 -20.5v-118q-109 0 -189.5 29.5t-133 79.5t-78 118t-25.5 143zM973 1573l348 188l78 -104l-406 -125z" />
<glyph unicode="&#xdb;" horiz-adv-x="1798" d="M41 0zM41 1036q0 86 29.5 159t98.5 126t180.5 83t277.5 30h123v-957q0 -102 32.5 -179t88 -127t126 -75.5t146.5 -25.5t146.5 25.5t125.5 75.5t88 127t33 179v957h123v-957q0 -133 -43 -231.5t-115 -164t-165 -98t-193 -32.5t-193.5 32.5t-165 98t-114.5 164t-43 231.5 v838q-133 0 -222.5 -21.5t-142.5 -58.5t-75.5 -88t-22.5 -111q0 -51 18.5 -97t55 -80t94 -54.5t135.5 -20.5v-118q-109 0 -189.5 29.5t-133 79.5t-78 118t-25.5 143zM868 1536l164 201h107l164 -201h-78l-141 113l-142 -113h-74z" />
<glyph unicode="&#xdc;" horiz-adv-x="1798" d="M41 0zM41 1036q0 86 29.5 159t98.5 126t180.5 83t277.5 30h123v-957q0 -102 32.5 -179t88 -127t126 -75.5t146.5 -25.5t146.5 25.5t125.5 75.5t88 127t33 179v957h123v-957q0 -133 -43 -231.5t-115 -164t-165 -98t-193 -32.5t-193.5 32.5t-165 98t-114.5 164t-43 231.5 v838q-133 0 -222.5 -21.5t-142.5 -58.5t-75.5 -88t-22.5 -111q0 -51 18.5 -97t55 -80t94 -54.5t135.5 -20.5v-118q-109 0 -189.5 29.5t-133 79.5t-78 118t-25.5 143zM918 1597q0 33 23.5 57.5t58.5 24.5q33 0 57 -23.5t24 -58.5t-23 -58t-58 -23q-37 0 -59.5 23.5 t-22.5 57.5zM1213 1597q0 33 23.5 57.5t57.5 24.5q37 0 59.5 -23.5t22.5 -58.5t-23.5 -58t-58.5 -23t-58 23.5t-23 57.5z" />
<glyph unicode="&#xdd;" horiz-adv-x="1613" d="M39 0zM39 1036q0 86 32.5 159t100.5 126t170 83t242 30h14l440 -799l441 799h135l-514 -934v-500h-123v500l-447 811q-104 -6 -174.5 -30t-113.5 -60.5t-61.5 -83.5t-18.5 -101q0 -51 18.5 -97t55 -80t94 -54.5t135.5 -20.5v-118q-109 0 -189.5 29.5t-133 79.5t-78 118 t-25.5 143zM825 1573l348 188l78 -104l-406 -125z" />
<glyph unicode="&#xde;" horiz-adv-x="1130" d="M154 0v1434h122v-246h338q94 0 180.5 -27.5t151 -86t102 -147.5t37.5 -212t-36.5 -212t-101 -145.5t-149.5 -84t-184 -27.5h-338v-246h-122zM276 365h338q72 0 135.5 20.5t110.5 63.5t75 108.5t28 157.5t-28 158.5t-76 109.5t-111.5 64.5t-133.5 21.5h-338v-704z" />
<glyph unicode="&#xdf;" horiz-adv-x="1175" d="M154 0v942q0 274 116.5 407.5t311.5 133.5q86 0 160.5 -25.5t129 -76t86 -125t31.5 -171.5q0 -104 -37 -176.5t-104 -113.5q121 -39 178 -128t57 -225q0 -109 -34.5 -191.5t-95 -138t-144.5 -84t-182 -28.5h-76v123h76q72 0 133 20.5t105 60.5t70 100.5t26 139.5 q0 133 -75 204t-233 71h-102v121h67q117 0 182.5 63.5t65.5 181.5q0 74 -23.5 125.5t-63.5 85t-91 49t-106 15.5q-141 0 -223.5 -101.5t-82.5 -316.5v-942h-122z" />
<glyph unicode="&#xe0;" horiz-adv-x="1257" d="M0 0l588 1434h82l587 -1434h-131l-133 330h-729l-133 -330h-131zM0 0zM311 449h633l-231 573l-84 242l-84 -242zM481 1657l78 104l348 -188l-21 -41z" />
<glyph unicode="&#xe1;" horiz-adv-x="1257" d="M0 0l588 1434h82l587 -1434h-131l-133 330h-729l-133 -330h-131zM0 0zM311 449h633l-231 573l-84 242l-84 -242zM481 1573l348 188l78 -104l-406 -125z" />
<glyph unicode="&#xe2;" horiz-adv-x="1257" d="M0 0l588 1434h82l587 -1434h-131l-133 330h-729l-133 -330h-131zM0 0zM311 449h633l-231 573l-84 242l-84 -242zM350 1536l164 201h107l164 -201h-78l-141 113l-142 -113h-74z" />
<glyph unicode="&#xe3;" horiz-adv-x="1257" d="M0 0l588 1434h82l587 -1434h-131l-133 330h-729l-133 -330h-131zM0 0zM311 449h633l-231 573l-84 242l-84 -242zM387 1524q23 90 55.5 121.5t82.5 31.5q23 0 50 -10t56 -23.5t55.5 -23.5t46.5 -10q29 0 46.5 17.5t35.5 64.5l56 -15q-23 -90 -55.5 -121.5t-82.5 -31.5 q-23 0 -50 10t-56 23.5t-55.5 23.5t-46.5 10q-29 0 -46.5 -17.5t-35.5 -64.5z" />
<glyph unicode="&#xe4;" horiz-adv-x="1257" d="M0 0l588 1434h82l587 -1434h-131l-133 330h-729l-133 -330h-131zM0 0zM311 449h633l-231 573l-84 242l-84 -242zM449 1597q0 33 23.5 57.5t58.5 24.5q33 0 57 -23.5t24 -58.5t-23 -58t-58 -23q-37 0 -59.5 23.5t-22.5 57.5zM744 1597q0 33 23.5 57.5t57.5 24.5 q37 0 59.5 -23.5t22.5 -58.5t-23.5 -58t-58.5 -23t-58 23.5t-23 57.5z" />
<glyph unicode="&#xe5;" horiz-adv-x="1257" d="M0 0l578 1411q-51 16 -81 57t-30 99q0 70 46 116t116 46t116 -46.5t46 -115.5q0 -57 -31 -98.5t-82 -57.5l579 -1411h-131l-133 330h-729l-133 -330h-131zM311 449h633l-231 573l-84 242l-84 -242zM547 1567q0 -35 23.5 -58.5t58.5 -23.5t58.5 23.5t23.5 58.5t-23.5 58.5 t-58.5 23.5t-58.5 -23.5t-23.5 -58.5z" />
<glyph unicode="&#xe6;" horiz-adv-x="1646" d="M0 0l588 1434h954v-119h-604v-539h502v-119h-502v-538h604v-119h-727v330h-551l-133 -330h-131zM311 449h504v866h-153z" />
<glyph unicode="&#xe7;" horiz-adv-x="1228" d="M92 729q0 193 42 334t117 234.5t176 139.5t222 46q102 0 193.5 -37t159 -110.5t107.5 -187.5t40 -267h-123q0 123 -29.5 214t-81 150.5t-120 89t-146.5 29.5q-94 0 -173 -39t-137 -118t-91 -197.5t-33 -280.5q0 -170 37 -295t102.5 -206t157.5 -119.5t201 -38.5 q104 0 193 31.5t159 80.5l74 -98q-84 -59 -191.5 -96t-236.5 -37q-14 0 -27.5 1t-26.5 1l-16 -59l21 -9q41 -16 71.5 -50t30.5 -91q0 -70 -47 -105.5t-113 -35.5q-45 0 -69.5 14t-49.5 35l39 74q12 -6 28.5 -17.5t43.5 -11.5t43 13.5t16 35.5q0 29 -27.5 41t-58.5 27l-22 10 l45 137q-111 18 -203 73.5t-158.5 151t-102.5 230.5t-36 313z" />
<glyph unicode="&#xe8;" horiz-adv-x="1107" d="M154 0v1434h850v-119h-728v-539h625v-119h-625v-538h728v-119h-850zM154 0zM340 1657l78 104l348 -188l-21 -41z" />
<glyph unicode="&#xe9;" horiz-adv-x="1107" d="M154 0v1434h850v-119h-728v-539h625v-119h-625v-538h728v-119h-850zM154 0zM387 1573l348 188l78 -104l-406 -125z" />
<glyph unicode="&#xea;" horiz-adv-x="1107" d="M154 0v1434h850v-119h-728v-539h625v-119h-625v-538h728v-119h-850zM154 0zM274 1536l164 201h107l164 -201h-78l-141 113l-142 -113h-74z" />
<glyph unicode="&#xeb;" horiz-adv-x="1107" d="M154 0v1434h850v-119h-728v-539h625v-119h-625v-538h728v-119h-850zM154 0zM353 1597q0 33 23.5 57.5t58.5 24.5q33 0 57 -23.5t24 -58.5t-23 -58t-58 -23q-37 0 -59.5 23.5t-22.5 57.5zM648 1597q0 33 23.5 57.5t57.5 24.5q37 0 59.5 -23.5t22.5 -58.5t-23.5 -58 t-58.5 -23t-58 23.5t-23 57.5z" />
<glyph unicode="&#xec;" horiz-adv-x="583" d="M82 0zM82 1657l78 104l348 -188l-21 -41zM232 0v1434h122v-1434h-122z" />
<glyph unicode="&#xed;" horiz-adv-x="583" d="M82 0zM82 1573l348 188l78 -104l-406 -125zM232 0v1434h122v-1434h-122z" />
<glyph unicode="&#xee;" horiz-adv-x="450" d="M-52 1536l164 201h107l164 -201h-78l-141 113l-142 -113h-74zM0 0zM164 0v1434h122v-1434h-122z" />
<glyph unicode="&#xef;" horiz-adv-x="548" d="M47 0zM48 1597q0 33 23.5 57.5t58.5 24.5q33 0 57 -23.5t24 -58.5t-23 -58t-58 -23q-37 0 -59.5 23.5t-22.5 57.5zM213 0v1434h122v-1434h-122zM343 1597q0 33 23.5 57.5t57.5 24.5q37 0 59.5 -23.5t22.5 -58.5t-23.5 -58t-58.5 -23t-58 23.5t-23 57.5z" />
<glyph unicode="&#xf0;" horiz-adv-x="1374" d="M39 0zM39 666v118h221v650h371q139 0 259 -43t207 -131.5t136 -223.5t49 -319t-49 -319.5t-136 -223.5t-207 -131t-259 -43h-371v666h-221zM383 119h248q113 0 210 35.5t167.5 109.5t110.5 186.5t40 266.5t-40 266.5t-110.5 186t-168 109.5t-209.5 36h-248v-531h399v-118 h-399v-547z" />
<glyph unicode="&#xf1;" horiz-adv-x="1312" d="M154 0v1434h82l800 -1164v1164h123v-1434h-82l-801 1163v-1163h-122zM154 0zM413 1524q23 90 55.5 121.5t82.5 31.5q23 0 50 -10t56 -23.5t55.5 -23.5t46.5 -10q29 0 46.5 17.5t35.5 64.5l56 -15q-23 -90 -55.5 -121.5t-82.5 -31.5q-23 0 -50 10t-56 23.5t-55.5 23.5 t-46.5 10q-29 0 -46.5 -17.5t-35.5 -64.5z" />
<glyph unicode="&#xf2;" d="M92 0zM92 717q0 197 45 341t125 238.5t188.5 140.5t235.5 46t235.5 -46t188.5 -140.5t125 -239t45 -340.5q0 -197 -45 -341.5t-125 -238.5t-188.5 -140t-235.5 -46t-235.5 46t-188.5 140t-125 238.5t-45 341.5zM215 717q0 -166 36 -288t98.5 -202t148.5 -118.5t188 -38.5 q100 0 187.5 38.5t149.5 118.5t98 202t36 288t-36 287.5t-98 201.5t-149.5 119t-187.5 39q-102 0 -188 -39t-148.5 -119t-98.5 -201.5t-36 -287.5zM473 1657l78 104l348 -188l-21 -41z" />
<glyph unicode="&#xf3;" d="M92 0zM92 717q0 197 45 341t125 238.5t188.5 140.5t235.5 46t235.5 -46t188.5 -140.5t125 -239t45 -340.5q0 -197 -45 -341.5t-125 -238.5t-188.5 -140t-235.5 -46t-235.5 46t-188.5 140t-125 238.5t-45 341.5zM215 717q0 -166 36 -288t98.5 -202t148.5 -118.5t188 -38.5 q100 0 187.5 38.5t149.5 118.5t98 202t36 288t-36 287.5t-98 201.5t-149.5 119t-187.5 39q-102 0 -188 -39t-148.5 -119t-98.5 -201.5t-36 -287.5zM473 1573l348 188l78 -104l-406 -125z" />
<glyph unicode="&#xf4;" d="M92 0zM92 717q0 197 45 341t125 238.5t188.5 140.5t235.5 46t235.5 -46t188.5 -140.5t125 -239t45 -340.5q0 -197 -45 -341.5t-125 -238.5t-188.5 -140t-235.5 -46t-235.5 46t-188.5 140t-125 238.5t-45 341.5zM215 717q0 -166 36 -288t98.5 -202t148.5 -118.5t188 -38.5 q100 0 187.5 38.5t149.5 118.5t98 202t36 288t-36 287.5t-98 201.5t-149.5 119t-187.5 39q-102 0 -188 -39t-148.5 -119t-98.5 -201.5t-36 -287.5zM407 1536l164 201h107l164 -201h-78l-141 113l-142 -113h-74z" />
<glyph unicode="&#xf5;" d="M92 0zM92 717q0 197 45 341t125 238.5t188.5 140.5t235.5 46t235.5 -46t188.5 -140.5t125 -239t45 -340.5q0 -197 -45 -341.5t-125 -238.5t-188.5 -140t-235.5 -46t-235.5 46t-188.5 140t-125 238.5t-45 341.5zM215 717q0 -166 36 -288t98.5 -202t148.5 -118.5t188 -38.5 q100 0 187.5 38.5t149.5 118.5t98 202t36 288t-36 287.5t-98 201.5t-149.5 119t-187.5 39q-102 0 -188 -39t-148.5 -119t-98.5 -201.5t-36 -287.5zM444 1524q23 90 55.5 121.5t82.5 31.5q23 0 50 -10t56 -23.5t55.5 -23.5t46.5 -10q29 0 46.5 17.5t35.5 64.5l56 -15 q-23 -90 -55.5 -121.5t-82.5 -31.5q-23 0 -50 10t-56 23.5t-55.5 23.5t-46.5 10q-29 0 -46.5 -17.5t-35.5 -64.5z" />
<glyph unicode="&#xf6;" d="M92 0zM92 717q0 197 45 341t125 238.5t188.5 140.5t235.5 46t235.5 -46t188.5 -140.5t125 -239t45 -340.5q0 -197 -45 -341.5t-125 -238.5t-188.5 -140t-235.5 -46t-235.5 46t-188.5 140t-125 238.5t-45 341.5zM215 717q0 -166 36 -288t98.5 -202t148.5 -118.5t188 -38.5 q100 0 187.5 38.5t149.5 118.5t98 202t36 288t-36 287.5t-98 201.5t-149.5 119t-187.5 39q-102 0 -188 -39t-148.5 -119t-98.5 -201.5t-36 -287.5zM457 1597q0 33 23.5 57.5t58.5 24.5q33 0 57 -23.5t24 -58.5t-23 -58t-58 -23q-37 0 -59.5 23.5t-22.5 57.5zM752 1597 q0 33 23.5 57.5t57.5 24.5q37 0 59.5 -23.5t22.5 -58.5t-23.5 -58t-58.5 -23t-58 23.5t-23 57.5z" />
<glyph unicode="&#xf8;" horiz-adv-x="1351" d="M37 51l149 180q-49 92 -76.5 212t-27.5 274q0 197 45 341t125 238.5t188.5 140.5t235.5 46q123 0 229.5 -43t184.5 -133l131 155l94 -80l-152 -180q51 -92 79 -212t28 -273q0 -197 -45 -341.5t-125 -238.5t-188.5 -140t-235.5 -46q-125 0 -230.5 43t-185.5 133l-129 -156 zM205 717q0 -166 35.5 -288t98 -202t149 -118.5t188.5 -38.5q100 0 187 38.5t149.5 118.5t98.5 202t36 288t-36 287.5t-98.5 201.5t-149.5 119t-187 39q-102 0 -188.5 -39t-149 -119t-98 -201.5t-35.5 -287.5z" />
<glyph unicode="&#xf9;" horiz-adv-x="1314" d="M141 0zM141 477v957h123v-957q0 -102 33 -179t88 -127t126 -75.5t146 -25.5q76 0 146.5 25.5t126 75.5t88.5 127t33 179v957h123v-957q0 -133 -43.5 -231.5t-115 -164t-164.5 -98t-194 -32.5q-100 0 -193 32.5t-165 98t-115 164t-43 231.5zM445 1657l78 104l348 -188 l-21 -41z" />
<glyph unicode="&#xfa;" horiz-adv-x="1314" d="M141 0zM141 477v957h123v-957q0 -102 33 -179t88 -127t126 -75.5t146 -25.5q76 0 146.5 25.5t126 75.5t88.5 127t33 179v957h123v-957q0 -133 -43.5 -231.5t-115 -164t-164.5 -98t-194 -32.5q-100 0 -193 32.5t-165 98t-115 164t-43 231.5zM445 1573l348 188l78 -104 l-406 -125z" />
<glyph unicode="&#xfb;" horiz-adv-x="1314" d="M141 0zM141 477v957h123v-957q0 -102 33 -179t88 -127t126 -75.5t146 -25.5q76 0 146.5 25.5t126 75.5t88.5 127t33 179v957h123v-957q0 -133 -43.5 -231.5t-115 -164t-164.5 -98t-194 -32.5q-100 0 -193 32.5t-165 98t-115 164t-43 231.5zM378 1536l164 201h107 l164 -201h-78l-141 113l-142 -113h-74z" />
<glyph unicode="&#xfc;" horiz-adv-x="1314" d="M141 0zM141 477v957h123v-957q0 -102 33 -179t88 -127t126 -75.5t146 -25.5q76 0 146.5 25.5t126 75.5t88.5 127t33 179v957h123v-957q0 -133 -43.5 -231.5t-115 -164t-164.5 -98t-194 -32.5q-100 0 -193 32.5t-165 98t-115 164t-43 231.5zM428 1597q0 33 23.5 57.5 t58.5 24.5q33 0 57 -23.5t24 -58.5t-23 -58t-58 -23q-37 0 -59.5 23.5t-22.5 57.5zM723 1597q0 33 23.5 57.5t57.5 24.5q37 0 59.5 -23.5t22.5 -58.5t-23.5 -58t-58.5 -23t-58 23.5t-23 57.5z" />
<glyph unicode="&#xfd;" horiz-adv-x="1150" d="M0 0zM0 1434h135l440 -799l441 799h135l-514 -934v-500h-123v500zM363 1573l348 188l78 -104l-406 -125z" />
<glyph unicode="&#xfe;" horiz-adv-x="1130" d="M154 0v1434h122v-246h338q94 0 180.5 -27.5t151 -86t102 -147.5t37.5 -212t-36.5 -212t-101 -145.5t-149.5 -84t-184 -27.5h-338v-246h-122zM276 365h338q72 0 135.5 20.5t110.5 63.5t75 108.5t28 157.5t-28 158.5t-76 109.5t-111.5 64.5t-133.5 21.5h-338v-704z" />
<glyph unicode="&#xff;" horiz-adv-x="1150" d="M0 0zM0 1434h135l440 -799l441 799h135l-514 -934v-500h-123v500zM347 1597q0 33 23.5 57.5t58.5 24.5q33 0 57 -23.5t24 -58.5t-23 -58t-58 -23q-37 0 -59.5 23.5t-22.5 57.5zM642 1597q0 33 23.5 57.5t57.5 24.5q37 0 59.5 -23.5t22.5 -58.5t-23.5 -58t-58.5 -23 t-58 23.5t-23 57.5z" />
<glyph unicode="&#x152;" horiz-adv-x="1822" d="M92 717q0 197 41 341t110.5 238.5t164 140.5t198.5 46q119 0 212 -57.5t155 -176.5v185h747v-119h-624v-539h522v-119h-522v-538h624v-119h-747v184q-61 -119 -154.5 -176t-212.5 -57q-104 0 -198.5 46t-164 140t-110.5 238.5t-41 341.5zM215 719q0 -166 30.5 -289 t84 -203t123 -118.5t147.5 -38.5q170 0 271.5 157.5t101.5 487.5q0 332 -101.5 490.5t-265.5 158.5q-80 0 -151.5 -39t-125 -118t-84 -200.5t-30.5 -287.5z" />
<glyph unicode="&#x153;" horiz-adv-x="1822" d="M92 0zM92 717q0 197 41 341t110.5 238.5t164 140.5t198.5 46q119 0 212 -57.5t155 -176.5v185h747v-119h-624v-539h522v-119h-522v-538h624v-119h-747v184q-61 -119 -154.5 -176t-212.5 -57q-104 0 -198.5 46t-164 140t-110.5 238.5t-41 341.5zM215 719q0 -166 30.5 -289 t84 -203t123 -118.5t147.5 -38.5q170 0 271.5 157.5t101.5 487.5q0 332 -101.5 490.5t-265.5 158.5q-80 0 -151.5 -39t-125 -118t-84 -200.5t-30.5 -287.5z" />
<glyph unicode="&#x178;" horiz-adv-x="1613" d="M39 0zM39 1036q0 86 32.5 159t100.5 126t170 83t242 30h14l440 -799l441 799h135l-514 -934v-500h-123v500l-447 811q-104 -6 -174.5 -30t-113.5 -60.5t-61.5 -83.5t-18.5 -101q0 -51 18.5 -97t55 -80t94 -54.5t135.5 -20.5v-118q-109 0 -189.5 29.5t-133 79.5t-78 118 t-25.5 143zM809 1597q0 33 23.5 57.5t58.5 24.5q33 0 57 -23.5t24 -58.5t-23 -58t-58 -23q-37 0 -59.5 23.5t-22.5 57.5zM1104 1597q0 33 23.5 57.5t57.5 24.5q37 0 59.5 -23.5t22.5 -58.5t-23.5 -58t-58.5 -23t-58 23.5t-23 57.5z" />
<glyph unicode="&#x2c6;" horiz-adv-x="475" d="M20 1536l164 201h107l164 -201h-78l-141 113l-142 -113h-74z" />
<glyph unicode="&#x2dc;" horiz-adv-x="774" d="M141 1524q23 90 55.5 121.5t82.5 31.5q23 0 50 -10t56 -23.5t55.5 -23.5t46.5 -10q29 0 46.5 17.5t35.5 64.5l56 -15q-23 -90 -55.5 -121.5t-82.5 -31.5q-23 0 -50 10t-56 23.5t-55.5 23.5t-46.5 10q-29 0 -46.5 -17.5t-35.5 -64.5z" />
<glyph unicode="&#x2000;" horiz-adv-x="880" />
<glyph unicode="&#x2001;" horiz-adv-x="1761" />
<glyph unicode="&#x2002;" horiz-adv-x="880" />
<glyph unicode="&#x2003;" horiz-adv-x="1761" />
<glyph unicode="&#x2004;" horiz-adv-x="587" />
<glyph unicode="&#x2005;" horiz-adv-x="440" />
<glyph unicode="&#x2006;" horiz-adv-x="293" />
<glyph unicode="&#x2007;" horiz-adv-x="293" />
<glyph unicode="&#x2008;" horiz-adv-x="220" />
<glyph unicode="&#x2009;" horiz-adv-x="352" />
<glyph unicode="&#x200a;" horiz-adv-x="97" />
<glyph unicode="&#x2010;" horiz-adv-x="821" d="M154 657v119h514v-119h-514z" />
<glyph unicode="&#x2011;" horiz-adv-x="821" d="M154 657v119h514v-119h-514z" />
<glyph unicode="&#x2012;" horiz-adv-x="821" d="M154 657v119h514v-119h-514z" />
<glyph unicode="&#x2013;" horiz-adv-x="1230" d="M154 657v119h923v-119h-923z" />
<glyph unicode="&#x2014;" horiz-adv-x="1435" d="M154 657v119h1128v-119h-1128z" />
<glyph unicode="&#x2018;" horiz-adv-x="434" d="M92 1137q0 96 45 181t123 157l76 -66q-43 -41 -71.5 -77t-47.5 -70q53 -2 89 -38t36 -87t-37 -89t-88 -38q-53 0 -89 36.5t-36 90.5z" />
<glyph unicode="&#x2019;" horiz-adv-x="434" d="M92 1348q0 51 37 89t88 38q53 0 89 -37t36 -90q0 -96 -45 -181.5t-123 -156.5l-76 65q43 41 72 77t47 71q-53 2 -89 37.5t-36 87.5z" />
<glyph unicode="&#x201a;" horiz-adv-x="434" d="M92 82q0 51 37 89t88 38q53 0 89 -37t36 -90q0 -96 -45 -181t-123 -157l-76 66q43 41 72 76.5t47 70.5q-53 2 -89 38t-36 87z" />
<glyph unicode="&#x201c;" horiz-adv-x="761" d="M92 1137q0 96 45 181t123 157l76 -66q-43 -41 -71.5 -77t-47.5 -70q53 -2 89 -38t36 -87t-37 -89t-88 -38q-53 0 -89 36.5t-36 90.5zM420 1137q0 96 45 181t123 157l76 -66q-43 -41 -72 -77t-47 -70q53 -2 89 -38t36 -87t-37 -89t-88 -38q-53 0 -89 36.5t-36 90.5z" />
<glyph unicode="&#x201d;" horiz-adv-x="761" d="M92 1348q0 51 37 89t88 38q53 0 89 -37t36 -90q0 -96 -45 -181.5t-123 -156.5l-76 65q43 41 72 77t47 71q-53 2 -89 37.5t-36 87.5zM420 1348q0 51 37 89t88 38q53 0 89 -37t36 -90q0 -96 -45 -181.5t-123 -156.5l-76 65q43 41 71.5 77t47.5 71q-53 2 -89 37.5t-36 87.5z " />
<glyph unicode="&#x201e;" horiz-adv-x="761" d="M92 82q0 51 37 89t88 38q53 0 89 -37t36 -90q0 -96 -45 -181t-123 -157l-76 66q43 41 72 76.5t47 70.5q-53 2 -89 38t-36 87zM420 82q0 51 37 89t88 38q53 0 89 -37t36 -90q0 -96 -45 -181t-123 -157l-76 66q43 41 71.5 76.5t47.5 70.5q-53 2 -89 38t-36 87z" />
<glyph unicode="&#x2022;" horiz-adv-x="724" d="M154 717q0 43 16 81t45 66.5t66.5 45t80.5 16.5t81 -16.5t67 -45t45 -66.5t16 -81t-16 -81t-45 -66.5t-67 -45t-81 -16.5t-80.5 16.5t-66.5 45t-45 66.5t-16 81z" />
<glyph unicode="&#x2026;" horiz-adv-x="1302" d="M92 84q0 51 37 88t88 37q53 0 89 -36t36 -89q0 -51 -36 -88t-89 -37q-51 0 -88 37t-37 88zM526 84q0 51 37 88t88 37q53 0 89 -36t36 -89q0 -51 -36 -88t-89 -37q-51 0 -88 37t-37 88zM961 84q0 51 36.5 88t87.5 37q53 0 89 -36t36 -89q0 -51 -36 -88t-89 -37 q-51 0 -87.5 37t-36.5 88z" />
<glyph unicode="&#x202f;" horiz-adv-x="352" />
<glyph unicode="&#x2039;" horiz-adv-x="716" d="M92 717l387 516h146l-387 -516l387 -516h-146z" />
<glyph unicode="&#x203a;" horiz-adv-x="716" d="M92 201l387 516l-387 516h146l387 -516l-387 -516h-146z" />
<glyph unicode="&#x205f;" horiz-adv-x="440" />
<glyph unicode="&#x20ac;" horiz-adv-x="1384" d="M92 522v103h217q-2 25 -2 50v54v51.5t2 48.5h-217v103h230q23 141 76 245.5t131.5 172t179 100.5t217.5 33q129 0 236.5 -37t191.5 -96l-74 -99q-70 49 -159 81t-193 32q-90 0 -169 -25.5t-141.5 -79t-106.5 -135.5t-65 -192h570v-103h-582q-4 -25 -4 -49v-51v-54.5 t4 -49.5h582v-103h-570q20 -117 63.5 -201.5t106 -141t141.5 -83t171 -26.5q104 0 193 31.5t159 80.5l74 -98q-84 -59 -191.5 -96t-236.5 -37q-117 0 -217.5 33.5t-179 104.5t-132 178.5t-75.5 254.5h-230z" />
<glyph unicode="&#x2122;" horiz-adv-x="1572" d="M23 1346v88h598v-88h-254v-777h-91v777h-253zM690 569v865h62l331 -531l336 531h62v-865h-90v654l-279 -437h-57l-279 435v-652h-86z" />
<glyph unicode="&#xe000;" horiz-adv-x="1433" d="M0 0v1434h1434v-1434h-1434z" />
</font>
</defs>
</svg>
