<?xml version="1.0" standalone="no"?>
<!DOCTYPE svg PUBLIC "-//W3C//DTD SVG 1.1//EN" "http://www.w3.org/Graphics/SVG/1.1/DTD/svg11.dtd" >
<svg xmlns="http://www.w3.org/2000/svg">
<metadata></metadata>
<defs>
<font id="myra_4f_capsregular" horiz-adv-x="1433" >
<font-face units-per-em="2048" ascent="1536" descent="-512" />
<missing-glyph horiz-adv-x="614" />
<glyph horiz-adv-x="2048" />
<glyph horiz-adv-x="2048" />
<glyph unicode="&#xd;" horiz-adv-x="614" />
<glyph unicode=" "  horiz-adv-x="614" />
<glyph unicode="&#x09;" horiz-adv-x="614" />
<glyph unicode="&#xa0;" horiz-adv-x="614" />
<glyph unicode="!" horiz-adv-x="532" d="M113 106q0 59 43 103.5t104 44.5q59 0 103.5 -44t44.5 -104q0 -61 -44.5 -104t-103.5 -43q-61 0 -104 43t-43 104zM133 1434h266l-57 -1045h-154z" />
<glyph unicode="&#x22;" horiz-adv-x="782" d="M123 1434h225l-61 -533h-103zM434 1434h225l-61 -533h-102z" />
<glyph unicode="#" horiz-adv-x="1320" d="M92 467v141h256l64 238h-217v139h254l120 449h166l-117 -449h230l119 449h168l-117 -449h211v-139h-252l-62 -238h211v-141h-249l-125 -467h-168l125 467h-232q-29 -113 -61.5 -232.5t-61.5 -234.5h-170l125 467h-217zM518 608h227l64 238h-229z" />
<glyph unicode="$" horiz-adv-x="1214" d="M59 125l117 168q66 -59 163 -94t200 -43v467q-94 18 -174 44.5t-139.5 71.5t-93.5 113t-34 170q0 104 36 184t95.5 137.5t139.5 90t170 43.5v264h135v-262q115 -8 229.5 -48t204.5 -112l-119 -170q-59 53 -144 85t-171 40v-469q98 -20 183 -48t146.5 -72t96.5 -110.5 t35 -164.5q0 -104 -37 -184.5t-100.5 -136.5t-147.5 -90t-176 -44v-262h-135v258q-135 8 -261 54t-219 120zM313 1036q0 -51 17.5 -86t48.5 -58.5t72 -36.5t88 -24v437q-94 -16 -160 -72.5t-66 -159.5zM674 162q51 8 95 25.5t78 47t53.5 69.5t19.5 93q0 94 -64.5 134 t-181.5 67v-436z" />
<glyph unicode="%" horiz-adv-x="1345" d="M82 1167q0 80 20.5 137.5t57.5 95.5t85 56.5t103 18.5t103.5 -18.5t84 -56.5t57 -95.5t21.5 -137.5t-21.5 -137t-57 -95t-84 -56.5t-103.5 -18.5t-103 18.5t-84 56.5t-57.5 95t-21.5 137zM213 1167q0 -96 39 -134t96 -38q53 0 93 38t40 134t-39 134t-94 38t-95 -37.5 t-40 -134.5zM246 0l669 1434h183l-670 -1434h-182zM731 266q0 80 21.5 137.5t57.5 95.5t84 56t103 18t103.5 -18t84.5 -56t57.5 -95.5t21.5 -137.5t-21.5 -137t-57.5 -95t-84.5 -56.5t-103.5 -18.5t-103 18.5t-85 56.5t-57.5 95t-20.5 137zM862 266q0 -96 40 -134t95 -38 t94 37t39 135q0 96 -37.5 134t-95.5 38q-53 0 -94 -38t-41 -134z" />
<glyph unicode="&#x26;" horiz-adv-x="1511" d="M102 385q0 121 52.5 228.5t177.5 172.5q-45 131 -45 254q0 78 21.5 157t70.5 142.5t130 103.5t202 40q109 0 198.5 -31t161.5 -82l-119 -166q-45 35 -106.5 54.5t-128.5 19.5q-57 0 -98 -19.5t-67 -52t-38 -76t-12 -90.5q0 -86 33.5 -184t92 -193.5t135.5 -183.5 t163 -155q43 51 68.5 111.5t40 115.5t20.5 99t8 67h213q-4 -37 -12.5 -96.5t-26.5 -128t-51 -142.5t-82 -139q104 -47 196 -47q33 0 63 5t71 15l39 -192q-111 -33 -185 -33q-78 0 -163 27.5t-171 76.5q-72 -47 -164 -75.5t-210 -28.5q-131 0 -222.5 35t-147.5 93t-82 136 t-26 162zM317 397q0 -111 63.5 -172t199.5 -61q102 0 178 35q-98 82 -186.5 186t-151.5 221q-53 -37 -78 -90t-25 -119z" />
<glyph unicode="'" horiz-adv-x="471" d="M123 1434h225l-61 -533h-103z" />
<glyph unicode="(" horiz-adv-x="634" d="M92 717q0 426 112.5 626.5t338.5 200.5v-203q-63 0 -109.5 -34.5t-77 -109.5t-45 -193.5t-14.5 -286.5q0 -170 14.5 -288t45 -193.5t76.5 -109.5t110 -34v-203q-225 0 -338 201t-113 627z" />
<glyph unicode=")" horiz-adv-x="634" d="M92 92q63 0 109.5 34t77 109.5t45 193.5t14.5 288q0 168 -14.5 286.5t-45 193.5t-76.5 109.5t-110 34.5v203q223 0 337 -200.5t114 -626.5t-114 -627t-337 -201v203z" />
<glyph unicode="*" horiz-adv-x="892" d="M90 1126l49 136l230 -74v246h149v-248q59 20 116.5 38.5t117.5 37.5l49 -136l-238 -79l150 -195q-29 -23 -57.5 -45.5t-57.5 -44.5l-154 205l-153 -207l-115 92q37 49 74 97t72 98z" />
<glyph unicode="+" horiz-adv-x="1435" d="M154 614v203h458v463h207v-463h463v-203h-463v-462h-207v462h-458z" />
<glyph unicode="," horiz-adv-x="518" d="M92 125q0 68 49 118t117 50q70 0 119 -48t49 -120q0 -123 -56.5 -232.5t-150.5 -201.5l-102 88q100 100 141 180q-72 2 -119 50t-47 116z" />
<glyph unicode="-" horiz-adv-x="821" d="M154 614v203h514v-203h-514z" />
<glyph unicode="." horiz-adv-x="518" d="M92 125q0 68 49 118t117 50q70 0 119 -49t49 -119q0 -68 -49 -117t-119 -49q-68 0 -117 49t-49 117z" />
<glyph unicode="/" horiz-adv-x="808" d="M0 0l668 1434h141l-668 -1434h-141z" />
<glyph unicode="0" horiz-adv-x="1310" d="M92 717q0 197 43 341t118 238.5t178 140.5t224 46t224.5 -46t178.5 -140.5t118 -239t43 -340.5q0 -197 -43 -341.5t-118 -238.5t-178.5 -140t-224.5 -46t-224 46t-178 140t-118 238.5t-43 341.5zM307 717q0 -152 25.5 -258.5t72 -174t111 -99t139.5 -31.5 q76 0 139.5 31.5t109.5 99t73 174t27 258.5t-27 258t-73 174t-109.5 99.5t-139.5 31.5t-140 -31.5t-110.5 -99.5t-72 -174.5t-25.5 -257.5z" />
<glyph unicode="1" horiz-adv-x="856" d="M10 1163l516 267q0 2 1 2t1 2h113v-1434h-215v918q0 59 1 119.5t3 121.5l-324 -170q-25 45 -49 87t-47 87z" />
<glyph unicode="2" horiz-adv-x="1220" d="M92 0v141q147 111 287.5 218.5t250 215t176 220t66.5 233.5q0 70 -22.5 119t-60 77.5t-88 42t-105.5 13.5q-68 0 -121 -19.5t-90 -65.5t-57.5 -123t-20.5 -191h-215q0 154 37 266.5t104.5 187t164 111.5t214.5 37q131 0 221.5 -40t146.5 -103.5t81.5 -143.5t25.5 -158 q0 -137 -65.5 -264t-167.5 -237.5t-231 -201.5t-254 -153l258 21h501v-203h-1036z" />
<glyph unicode="3" horiz-adv-x="1175" d="M92 881q0 154 36 267.5t101.5 187t154.5 110.5t198 37q100 0 186 -31t148.5 -90t98.5 -145.5t36 -196.5q0 -129 -48.5 -212t-140.5 -124q221 -70 221 -305q0 -100 -36.5 -180t-101 -135.5t-154 -84t-193.5 -28.5q-141 0 -272 53t-230 141l127 158q74 -70 171.5 -109.5 t207.5 -39.5q117 0 191.5 54t74.5 171q0 102 -63.5 148t-181.5 46h-103v205h109q94 0 150.5 59.5t56.5 182.5q0 70 -19.5 120t-53.5 80.5t-80 45t-97 14.5q-129 0 -204 -92t-75 -307h-215z" />
<glyph unicode="4" horiz-adv-x="1263" d="M72 348v141l385 945h227l-358 -883h465v424l215 43v-467h186v-203h-186v-348h-215v348h-719z" />
<glyph unicode="5" horiz-adv-x="1175" d="M96 125l121 162q70 -61 166 -96t192 -35q131 0 212 66.5t81 213.5q0 74 -20.5 124t-56 81t-84 44t-103.5 13q-92 0 -160.5 -31.5t-121.5 -72.5l-177 41q12 201 24.5 399.5t27.5 399.5h811v-203h-621q-6 -98 -12 -195.5t-10 -195.5q49 29 113.5 46t146.5 17 q213 0 335.5 -113.5t122.5 -336.5q0 -121 -37.5 -215.5t-103 -158t-158 -96t-198.5 -32.5q-137 0 -266.5 48t-223.5 126z" />
<glyph unicode="6" horiz-adv-x="1245" d="M92 692q0 209 42 359.5t118 246t181.5 140.5t232.5 45q115 0 235.5 -32t208.5 -83l-94 -166q-72 35 -170 55.5t-176 20.5q-76 0 -137.5 -24.5t-107.5 -78t-76 -139.5t-38 -211q78 35 163 55.5t175 20.5q106 0 198.5 -28.5t160 -87t106.5 -147.5t39 -210q0 -223 -133 -350 t-375 -127q-113 0 -213 33.5t-176 118.5t-120 227.5t-44 361.5zM309 596q6 -135 36 -221t74 -135.5t102.5 -66.5t123.5 -17q135 0 214 64.5t79 205.5q0 143 -80 206.5t-211 63.5q-90 0 -177 -26.5t-161 -73.5z" />
<glyph unicode="7" horiz-adv-x="1028" d="M39 1231v203h950v-142l-557 -1292h-231l534 1231h-696z" />
<glyph unicode="8" horiz-adv-x="1257" d="M92 387q0 115 53.5 201t176.5 135q-100 51 -148.5 133t-48.5 193q0 98 37 178t104.5 136t159.5 88t203 32q109 0 201 -31t159.5 -87t105.5 -137t38 -179q0 -109 -48.5 -191t-148.5 -135q121 -49 175 -136t54 -200q0 -102 -42 -184t-113.5 -138.5t-171 -85t-211.5 -28.5 q-115 0 -212.5 29.5t-169 86t-112.5 137.5t-41 183zM307 383q0 -63 26.5 -107.5t71 -72t102.5 -40.5t122 -13q61 0 119.5 12t103.5 40.5t71.5 74t26.5 106.5t-25.5 105t-69.5 73t-102.5 42t-123.5 13q-68 0 -127.5 -14t-102.5 -44t-67.5 -73t-24.5 -102zM340 1051 q0 -59 22.5 -102.5t61.5 -71t92 -42t113 -14.5q59 0 112.5 14.5t92 43t61.5 72t23 102.5q0 57 -23 100t-61.5 71.5t-92 43t-112.5 14.5t-112.5 -14.5t-92.5 -43t-61.5 -72.5t-22.5 -101z" />
<glyph unicode="9" horiz-adv-x="1245" d="M92 1006q0 223 133 350t373 127q113 0 214 -35t177 -119t120 -227.5t44 -360.5q0 -209 -42 -359.5t-117.5 -245.5t-182 -140t-233.5 -45q-115 0 -235 30.5t-208 84.5l94 165q35 -18 79 -31.5t90 -23.5t91.5 -15t83.5 -5q76 0 137.5 23.5t107.5 76.5t75 139t39 211 q-78 -35 -162 -54.5t-174 -19.5q-106 0 -198.5 29t-160 87.5t-106.5 147.5t-39 210zM307 1008q0 -145 80 -208t209 -63q90 0 177 26t161 73q-6 135 -36 221t-74 135t-102 67.5t-124 18.5q-133 0 -212 -64.5t-79 -205.5z" />
<glyph unicode=":" horiz-adv-x="641" d="M92 0zM92 125q0 68 49 118t117 50q70 0 119 -49t49 -119q0 -68 -49 -117t-119 -49q-68 0 -117 49t-49 117zM92 739q0 68 49 118t117 50q70 0 119 -49t49 -119q0 -68 -49 -117t-119 -49q-68 0 -117 49t-49 117z" />
<glyph unicode=";" horiz-adv-x="641" d="M92 0zM92 125q0 68 49 118t117 50q70 0 119 -48t49 -120q0 -123 -56.5 -232.5t-150.5 -201.5l-102 88q100 100 141 180q-72 2 -119 50t-47 116zM92 739q0 68 49 118t117 50q70 0 119 -49t49 -119q0 -68 -49 -117t-119 -49q-68 0 -117 49t-49 117z" />
<glyph unicode="&#x3c;" horiz-adv-x="1224" d="M102 645v143l969 537v-238q-129 -70 -253 -137t-253 -135l-203 -98l203 -99l506 -270v-237z" />
<glyph unicode="=" horiz-adv-x="1230" d="M154 453v172h923v-172h-923zM154 809v172h923v-172h-923z" />
<glyph unicode="&#x3e;" horiz-adv-x="1224" d="M154 111v237l503 270l205 99l-205 98q-127 68 -251.5 135.5t-251.5 136.5v238l968 -537v-143z" />
<glyph unicode="?" horiz-adv-x="1204" d="M86 1319q98 80 224 122t259 42q96 0 188.5 -23.5t165 -76t117.5 -134.5t45 -198q0 -96 -31.5 -166t-85 -120t-127 -82t-155.5 -50l-8 -244h-154l-18 414l90 18q45 8 94 22.5t89 41t65.5 68.5t25.5 104q0 66 -29.5 107.5t-74.5 66t-99.5 34t-105.5 9.5q-104 0 -198.5 -34 t-159.5 -91zM449 106q0 59 43 103.5t104 44.5q59 0 103 -44t44 -104q0 -61 -44 -104t-103 -43q-61 0 -104 43t-43 104z" />
<glyph unicode="@" horiz-adv-x="1597" d="M92 725q0 393 186.5 575.5t546.5 182.5q182 0 311.5 -43t211.5 -126t119.5 -203t37.5 -273q0 -141 -29.5 -237.5t-76.5 -155t-109.5 -84t-126.5 -25.5q-113 0 -186 72q-80 -72 -203 -72q-145 0 -232 92t-87 287t87 287t232 92q66 0 118 -20.5t95 -61.5l21 63h129v-561 q37 -12 72.5 -3t65.5 46t48 104.5t18 172.5q0 117 -26.5 209t-88 154.5t-159.5 95t-240 32.5q-287 0 -429 -142.5t-142 -455.5q0 -324 153.5 -472.5t456.5 -148.5q160 0 288 34t220 85l74 -139q-106 -57 -251.5 -96t-334.5 -39q-377 0 -573.5 185.5t-196.5 588.5zM639 715 q0 -109 40 -157t112 -48q94 0 161 70v270q-70 70 -161 70q-72 0 -112 -48.5t-40 -156.5z" />
<glyph unicode="A" horiz-adv-x="1628" d="M39 1016q0 90 30.5 167t97 132t171 87t254.5 32h438q150 -360 298.5 -717t299.5 -717h-229l-119 287h-645l-119 -287h-227q129 309 256 614.5t256 616.5h-209q-66 0 -110 -11.5t-72 -29.5q-84 -18 -121 -66.5t-37 -107.5q0 -78 51 -133.5t162 -55.5v-202 q-109 0 -189.5 30.5t-133 85t-78 125t-25.5 150.5zM719 489h477l-96 236l-80 219l-62 197q-16 -49 -31.5 -98.5t-31.5 -98.5l-80 -219z" />
<glyph unicode="B" horiz-adv-x="1677" d="M39 1016q0 90 30.5 167t97 132t171 87t254.5 32h481q94 0 180 -25t150.5 -74t102.5 -123.5t38 -175.5q0 -117 -50 -192.5t-134 -118.5q102 -39 163.5 -120t61.5 -210q0 -102 -38 -176t-102.5 -123t-150.5 -72.5t-180 -23.5h-522v1231q-94 0 -159.5 -17.5t-105.5 -46 t-57.5 -67.5t-17.5 -84q0 -78 51 -133.5t162 -55.5v-202q-109 0 -189.5 30.5t-133 85t-78 125t-25.5 150.5zM807 205h307q51 0 98.5 9t82 31.5t55 60.5t20.5 97t-21.5 99.5t-56.5 65t-81 35.5t-97 11h-307v-409zM807 817h266q51 0 97.5 11.5t81 36t56 65.5t21.5 100 q0 57 -20.5 95t-55 61.5t-82 33t-98.5 9.5h-266v-412z" />
<glyph unicode="C" horiz-adv-x="1290" d="M92 727q0 193 44 335t123 235.5t185.5 139.5t233.5 46q111 0 208 -37t168.5 -110.5t113.5 -187.5t42 -267h-215q0 104 -23.5 180t-66.5 124t-101.5 71.5t-125.5 23.5q-82 0 -149.5 -31.5t-117 -98.5t-77 -171.5t-27.5 -249.5q0 -156 31 -265.5t88 -178t135 -100 t174 -31.5q111 0 199 32.5t153 89.5l123 -161q-92 -72 -209.5 -118t-265.5 -46q-139 0 -257 46t-204 141t-134 241.5t-48 347.5z" />
<glyph unicode="D" horiz-adv-x="1767" d="M39 1016q0 90 30.5 167t97 132t171 87t254.5 32h401q147 0 272.5 -43t216.5 -131.5t142 -223.5t51 -319t-51 -319.5t-142 -223.5t-216 -131t-273 -43h-401v1231q-94 0 -159.5 -17.5t-105.5 -46t-57.5 -67.5t-17.5 -84q0 -78 51 -133.5t162 -55.5v-202q-109 0 -189.5 30.5 t-133 85t-78 125t-25.5 150.5zM807 203h184q104 0 190.5 28.5t148 91t96 160t34.5 234.5t-34.5 234.5t-96 160t-147.5 91t-191 28.5h-184v-1028z" />
<glyph unicode="E" horiz-adv-x="1607" d="M39 1016q0 90 30.5 167t97 132t171 87t254.5 32h911v-203h-696v-414h594v-203h-594v-411h696v-203h-911v1231q-94 0 -159.5 -17.5t-105.5 -46t-57.5 -67.5t-17.5 -84q0 -78 51 -133.5t162 -55.5v-202q-109 0 -189.5 30.5t-133 85t-78 125t-25.5 150.5z" />
<glyph unicode="F" horiz-adv-x="1572" d="M39 1016q0 90 30.5 167t97 132t171 87t254.5 32h911v-203h-696v-414h594v-203h-594v-614h-215v1231q-94 0 -159.5 -17.5t-105.5 -46t-57.5 -67.5t-17.5 -84q0 -78 51 -133.5t162 -55.5v-202q-109 0 -189.5 30.5t-133 85t-78 125t-25.5 150.5z" />
<glyph unicode="G" horiz-adv-x="1372" d="M92 715q0 197 47 342t132 239.5t203 140.5t257 46q147 0 268 -46t213 -118q-31 -41 -60.5 -83t-57.5 -83q-68 59 -162 92t-205 33q-94 0 -170 -28.5t-129 -94t-82 -175.5t-29 -269q0 -158 28 -264.5t79 -171t122.5 -92t160.5 -27.5q180 0 299 90v368h-293v205h518v-821 h-101l-32 61q-78 -47 -175.5 -77.5t-213.5 -30.5q-133 0 -247 46t-196 140t-128 237.5t-46 340.5z" />
<glyph unicode="H" horiz-adv-x="1812" d="M39 1016q0 90 30.5 167t97 132t171 87t254.5 32h215v-617h637v617h215v-1434h-215v614h-637v-614h-215v1231q-94 0 -159.5 -17.5t-105.5 -46t-57.5 -67.5t-17.5 -84q0 -78 51 -133.5t162 -55.5v-202q-109 0 -189.5 30.5t-133 85t-78 125t-25.5 150.5z" />
<glyph unicode="I" horiz-adv-x="960" d="M39 1016q0 90 30.5 167t97 132t171 87t254.5 32h215v-1434h-215v1231q-94 0 -159.5 -17.5t-105.5 -46t-57.5 -67.5t-17.5 -84q0 -78 51 -133.5t162 -55.5v-202q-109 0 -189.5 30.5t-133 85t-78 125t-25.5 150.5z" />
<glyph unicode="J" horiz-adv-x="948" d="M39 1016q0 90 30.5 167t97 132t171 87t254.5 32h215v-963q0 -127 -33 -221t-90 -155.5t-136 -92.5t-171 -31q-74 0 -139.5 14.5t-135.5 39.5l41 190q53 -18 118 -28.5t108 -10.5q102 0 162.5 68.5t60.5 226.5v760q-94 0 -159.5 -17.5t-105.5 -46t-57.5 -67.5t-17.5 -84 q0 -78 51 -133.5t162 -55.5v-202q-109 0 -189.5 30.5t-133 85t-78 125t-25.5 150.5z" />
<glyph unicode="K" horiz-adv-x="1673" d="M39 1016q0 90 30.5 167t97 132t171 87t254.5 32h215v-650l567 650h262l-620 -717l620 -717h-262l-567 647v-647h-215v1231q-94 0 -159.5 -17.5t-105.5 -46t-57.5 -67.5t-17.5 -84q0 -78 51 -133.5t162 -55.5v-202q-109 0 -189.5 30.5t-133 85t-78 125t-25.5 150.5z" />
<glyph unicode="L" horiz-adv-x="1435" d="M39 1016q0 90 30.5 167t97 132t171 87t254.5 32h215v-1231h594v-203h-809v1231q-94 0 -159.5 -17.5t-105.5 -46t-57.5 -67.5t-17.5 -84q0 -78 51 -133.5t162 -55.5v-202q-109 0 -189.5 30.5t-133 85t-78 125t-25.5 150.5z" />
<glyph unicode="M" horiz-adv-x="2117" d="M39 1016q0 90 30.5 167t97 132t171 87t254.5 32h143l543 -816l543 816h143v-1434h-215v971l-399 -602h-144l-399 602v-971h-215v1231q-94 0 -159.5 -17.5t-105.5 -46t-57.5 -67.5t-17.5 -84q0 -78 51 -133.5t162 -55.5v-202q-109 0 -189.5 30.5t-133 85t-78 125 t-25.5 150.5z" />
<glyph unicode="N" horiz-adv-x="1812" d="M39 1016q0 90 30.5 167t97 132t171 87t254.5 32h143l709 -992v992h215v-1434h-143l-709 991v-991h-215v1231q-94 0 -159.5 -17.5t-105.5 -46t-57.5 -67.5t-17.5 -84q0 -78 51 -133.5t162 -55.5v-202q-109 0 -189.5 30.5t-133 85t-78 125t-25.5 150.5z" />
<glyph unicode="O" d="M92 717q0 197 47 341t131 238.5t198 140.5t249 46t248.5 -46t197.5 -140.5t131 -239t47 -340.5q0 -197 -47 -341.5t-131 -238.5t-197.5 -140t-248.5 -46t-249 46t-198 140t-131 238.5t-47 341.5zM307 717q0 -152 31 -258.5t85 -174t129 -99t165 -31.5q88 0 163.5 31.5 t130 99t85 174t30.5 258.5t-30.5 258t-85 174t-130 99.5t-163.5 31.5q-90 0 -165 -31.5t-129 -99.5t-85 -174.5t-31 -257.5z" />
<glyph unicode="P" horiz-adv-x="1630" d="M39 1016q0 90 30.5 167t97 132t171 87t254.5 32h522q94 0 180 -28t150.5 -86t102.5 -147.5t38 -211.5q0 -123 -37 -212.5t-101.5 -145.5t-149.5 -83.5t-183 -27.5h-307v-492h-215v1231q-94 0 -159.5 -17.5t-105.5 -46t-57.5 -67.5t-17.5 -84q0 -78 51 -133.5t162 -55.5 v-202q-109 0 -189.5 30.5t-133 85t-78 125t-25.5 150.5zM807 694h307q51 0 98.5 13.5t82 44t55 82t20.5 127.5t-20.5 128t-55 83.5t-82 45t-98.5 13.5h-307v-537z" />
<glyph unicode="Q" d="M92 717q0 197 47 341t131 238.5t198 140.5t249 46t248.5 -46t197.5 -140.5t131 -239t47 -340.5q0 -242 -68.5 -402.5t-187.5 -251.5q47 -86 111 -143t139 -92l-96 -176q-98 47 -186 126t-152 202q-84 -29 -184 -29q-135 0 -249 46t-198 140t-131 238.5t-47 341.5z M307 717q0 -152 31 -258.5t85 -174t129 -99t165 -31.5q88 0 163.5 31.5t130 99t85 174t30.5 258.5t-30.5 258t-85 174t-130 99.5t-163.5 31.5q-90 0 -165 -31.5t-129 -99.5t-85 -174.5t-31 -257.5z" />
<glyph unicode="R" horiz-adv-x="1667" d="M39 1016q0 90 30.5 167t97 132t171 87t254.5 32h522q94 0 180 -28t150.5 -86t102.5 -148.5t38 -213.5q0 -188 -84 -296.5t-217 -147.5l328 -514h-244l-309 492h-252v-492h-215v1223q-94 0 -159.5 -15.5t-105.5 -43t-57.5 -65.5t-17.5 -83q0 -74 51 -127t162 -53v-211 q-109 0 -189.5 30.5t-133 85t-78 125t-25.5 150.5zM807 694h307q51 0 98.5 13.5t82 44t55 82t20.5 127.5t-20.5 128t-55 83.5t-82 45t-98.5 13.5h-307v-537z" />
<glyph unicode="S" horiz-adv-x="1214" d="M59 125l117 168q74 -66 186.5 -101.5t223.5 -35.5q63 0 123.5 14t106.5 43t75 75t29 109q0 55 -23 91t-66 58.5t-103 37t-136 30.5q-102 18 -192.5 44t-157 70t-105.5 114.5t-39 179.5q0 117 44 203t117 143t167 86t195 29q127 0 258 -43t229 -121l-119 -170 q-68 59 -167 94t-197 35q-59 0 -115.5 -14.5t-99.5 -44t-70 -74.5t-27 -109q0 -59 22.5 -96t61.5 -59.5t89.5 -36t105.5 -23.5q115 -23 214 -48t172 -70.5t115 -115t42 -177.5q0 -117 -46.5 -203t-123 -142.5t-176 -85t-205.5 -28.5q-147 0 -285.5 48t-239.5 126z" />
<glyph unicode="T" horiz-adv-x="1478" d="M39 1016q0 90 30.5 167t97 132t171 87t254.5 32h848v-203h-396v-1231h-215v1231h-237q-94 0 -159.5 -17.5t-105.5 -46t-57.5 -67.5t-17.5 -84q0 -78 51 -133.5t162 -55.5v-202q-109 0 -189.5 30.5t-133 85t-78 125t-25.5 150.5z" />
<glyph unicode="U" horiz-adv-x="1826" d="M39 1016q0 90 30.5 167t97 132t171 87t254.5 32h215v-967q0 -84 28.5 -142.5t75.5 -97.5t106.5 -56t121.5 -17q61 0 120.5 17t106.5 56t75.5 97.5t28.5 142.5v967h216v-957q0 -133 -46.5 -231.5t-122 -164t-174 -98t-204.5 -32.5q-104 0 -203.5 32.5t-175.5 98t-122 164 t-46 231.5v754q-94 0 -159.5 -17.5t-105.5 -46t-57.5 -67.5t-17.5 -84q0 -78 51 -133.5t162 -55.5v-202q-109 0 -189.5 30.5t-133 85t-78 125t-25.5 150.5z" />
<glyph unicode="V" horiz-adv-x="1787" d="M39 1016q0 90 31.5 167t98.5 132t167 87t235 32h105l358 -871l84 -272l84 272l357 871h229l-598 -1434h-143l-515 1229q-78 -6 -131 -24.5t-86.5 -47.5t-48 -64.5t-14.5 -76.5q0 -78 51 -133.5t162 -55.5v-202q-109 0 -189.5 30.5t-133 85t-78 125t-25.5 150.5z" />
<glyph unicode="W" horiz-adv-x="2127" d="M39 1016q0 90 31.5 167t98.5 132t167 87t235 32h105l213 -775l55 -282l57 282l222 775h145l221 -775l58 -282l55 282l203 775h221l-406 -1434h-143l-217 723l-66 303l-65 -303l-215 -723h-144l-356 1227q-74 -6 -124 -25.5t-80.5 -47.5t-44 -63.5t-13.5 -74.5 q0 -78 51 -133.5t162 -55.5v-202q-109 0 -189.5 30.5t-133 85t-78 125t-25.5 150.5z" />
<glyph unicode="X" horiz-adv-x="1599" d="M39 1016q0 90 31.5 167t98.5 132t167 87t235 32h88l320 -496l319 496h242l-440 -686l481 -748h-242l-360 557l-361 -557h-241l481 748l-311 481q-82 -4 -138.5 -21.5t-91 -46t-50 -65.5t-15.5 -80q0 -78 51 -133.5t162 -55.5v-202q-109 0 -189.5 30.5t-133 85t-78 125 t-25.5 150.5z" />
<glyph unicode="Y" horiz-adv-x="1644" d="M39 1016q0 90 31.5 167t98.5 132t167 87t235 32h99l368 -691l369 691h238l-500 -908v-526h-215v526l-385 703q-80 -4 -136.5 -22.5t-91 -47.5t-50 -65.5t-15.5 -77.5q0 -78 51 -133.5t162 -55.5v-202q-109 0 -189.5 30.5t-133 85t-78 125t-25.5 150.5z" />
<glyph unicode="Z" horiz-adv-x="1378" d="M49 0v141l674 1090h-674v203h950v-142l-673 -1089h458q94 0 160 16.5t107 46t58 68.5t17 84q0 76 -52 132t-161 56v203q109 0 190 -30.5t133 -85t77.5 -125t25.5 -150.5q0 -90 -30.5 -167t-97 -132.5t-172 -87t-255.5 -31.5h-735z" />
<glyph unicode="[" horiz-adv-x="759" d="M154 -113v1659h501v-203h-286v-1253h286v-203h-501z" />
<glyph unicode="\" horiz-adv-x="808" d="M0 1434h141l668 -1434h-141z" />
<glyph unicode="]" horiz-adv-x="759" d="M104 90h287v1253h-287v203h502v-1659h-502v203z" />
<glyph unicode="_" horiz-adv-x="1126" d="M0 -205h1128v-170h-1128v170z" />
<glyph unicode="`" horiz-adv-x="815" d="M207 1651l92 125l348 -189l-31 -61z" />
<glyph unicode="a" horiz-adv-x="1339" d="M0 0q150 360 298 716.5t300 717.5h143q150 -360 298.5 -717t299.5 -717h-229l-119 287h-645l-119 -287h-227zM430 489h477l-108 265l-68 190l-61 197q-16 -49 -31.5 -98.5t-32.5 -98.5l-67 -190z" />
<glyph unicode="b" horiz-adv-x="1239" d="M154 0v1434h481q94 0 180 -25t150.5 -74t102.5 -123.5t38 -175.5q0 -117 -50 -192.5t-134 -118.5q102 -39 163.5 -120t61.5 -210q0 -102 -38 -176t-102.5 -123t-150.5 -72.5t-180 -23.5h-522zM369 205h307q51 0 98 9t82 31.5t55.5 60.5t20.5 97t-21.5 99.5t-56.5 65 t-81 35.5t-97 11h-307v-409zM369 817h266q51 0 97 11.5t81 36t56.5 65.5t21.5 100q0 57 -20.5 95t-55.5 61.5t-82 33t-98 9.5h-266v-412z" />
<glyph unicode="c" horiz-adv-x="1290" d="M92 727q0 193 44 335t123 235.5t185.5 139.5t233.5 46q111 0 208 -37t168.5 -110.5t113.5 -187.5t42 -267h-215q0 104 -23.5 180t-66.5 124t-101.5 71.5t-125.5 23.5q-82 0 -149.5 -31.5t-117 -98.5t-77 -171.5t-27.5 -249.5q0 -156 31 -265.5t88 -178t135 -100 t174 -31.5q111 0 199 32.5t153 89.5l123 -161q-92 -72 -209.5 -118t-265.5 -46q-139 0 -257 46t-204 141t-134 241.5t-48 347.5z" />
<glyph unicode="d" horiz-adv-x="1329" d="M154 0v1434h401q147 0 272 -43t216.5 -131.5t142.5 -223.5t51 -319t-51 -319.5t-142.5 -223.5t-216.5 -131t-272 -43h-401zM369 203h182q104 0 191 28.5t148.5 91t96.5 160t35 234.5t-35 234.5t-96.5 160t-148.5 91t-191 28.5h-182v-1028z" />
<glyph unicode="e" horiz-adv-x="1169" d="M154 0v1434h911v-203h-696v-414h594v-203h-594v-411h696v-203h-911z" />
<glyph unicode="f" horiz-adv-x="1134" d="M154 0v1434h911v-203h-696v-414h594v-203h-594v-614h-215z" />
<glyph unicode="g" horiz-adv-x="1372" d="M92 715q0 197 47 342t132 239.5t203 140.5t257 46q147 0 268 -46t213 -118q-31 -41 -60.5 -83t-57.5 -83q-68 59 -162 92t-205 33q-94 0 -170 -28.5t-129 -94t-82 -175.5t-29 -269q0 -158 28 -264.5t79 -171t122.5 -92t160.5 -27.5q180 0 299 90v368h-293v205h518v-821 h-101l-32 61q-78 -47 -175.5 -77.5t-213.5 -30.5q-133 0 -247 46t-196 140t-128 237.5t-46 340.5z" />
<glyph unicode="h" horiz-adv-x="1374" d="M154 0v1434h215v-617h637v617h215v-1434h-215v614h-637v-614h-215z" />
<glyph unicode="i" horiz-adv-x="522" d="M154 0v1434h215v-1434h-215z" />
<glyph unicode="j" horiz-adv-x="856" d="M10 25l41 190q53 -18 117.5 -28.5t107.5 -10.5q100 0 162 71.5t62 223.5v963h215v-963q0 -127 -33 -221t-90 -155.5t-136 -92.5t-171 -31q-74 0 -139.5 14.5t-135.5 39.5z" />
<glyph unicode="k" horiz-adv-x="1232" d="M154 0v1434h215v-650l565 650h262l-621 -717l621 -717h-262l-565 647v-647h-215z" />
<glyph unicode="l" horiz-adv-x="997" d="M154 0v1434h215v-1231h594v-203h-809z" />
<glyph unicode="m" horiz-adv-x="1679" d="M154 0v1434h143l543 -816l542 816h144v-1434h-215v971l-400 -602h-143l-399 602v-971h-215z" />
<glyph unicode="n" horiz-adv-x="1374" d="M154 0v1434h143l709 -992v992h215v-1434h-144l-708 991v-991h-215z" />
<glyph unicode="o" d="M92 717q0 197 47 341t131 238.5t198 140.5t249 46t248.5 -46t197.5 -140.5t131 -239t47 -340.5q0 -197 -47 -341.5t-131 -238.5t-197.5 -140t-248.5 -46t-249 46t-198 140t-131 238.5t-47 341.5zM307 717q0 -152 31 -258.5t85 -174t129 -99t165 -31.5q88 0 163.5 31.5 t130 99t85 174t30.5 258.5t-30.5 258t-85 174t-130 99.5t-163.5 31.5q-90 0 -165 -31.5t-129 -99.5t-85 -174.5t-31 -257.5z" />
<glyph unicode="p" horiz-adv-x="1191" d="M154 0v1434h522q94 0 180 -28t150.5 -86t102.5 -147.5t38 -211.5q0 -123 -37 -212.5t-101.5 -145.5t-149.5 -83.5t-183 -27.5h-307v-492h-215zM369 694h307q51 0 97 13.5t82 44t56.5 82t20.5 127.5t-20.5 128t-56.5 83.5t-82 45t-97 13.5h-307v-537z" />
<glyph unicode="q" d="M92 717q0 197 47 341t131 238.5t198 140.5t249 46t248.5 -46t197.5 -140.5t131 -239t47 -340.5q0 -242 -68.5 -402.5t-187.5 -251.5q47 -86 111 -143t139 -92l-96 -176q-98 47 -186 126t-152 202q-84 -29 -184 -29q-135 0 -249 46t-198 140t-131 238.5t-47 341.5z M307 717q0 -152 31 -258.5t85 -174t129 -99t165 -31.5q88 0 163.5 31.5t130 99t85 174t30.5 258.5t-30.5 258t-85 174t-130 99.5t-163.5 31.5q-90 0 -165 -31.5t-129 -99.5t-85 -174.5t-31 -257.5z" />
<glyph unicode="r" horiz-adv-x="1230" d="M156 0v1434h522q94 0 180 -28t150.5 -86t102.5 -147.5t38 -211.5q0 -94 -22.5 -169t-62.5 -130.5t-95.5 -92.5t-120.5 -55l328 -514h-246l-307 492h-252v-492h-215zM371 694h307q51 0 97 13.5t82 44t56.5 82t20.5 127.5t-20.5 128t-56.5 83.5t-82 45t-97 13.5h-307v-537z " />
<glyph unicode="s" horiz-adv-x="1214" d="M59 125l117 168q74 -66 186.5 -101.5t223.5 -35.5q63 0 123.5 13t106.5 43t75 76t29 111q0 57 -23 92t-66 57.5t-103 36t-136 29.5q-102 18 -192.5 44t-157 70t-105.5 113.5t-39 178.5q0 117 44 204t117 144t167 86t195 29q123 0 250.5 -43t226.5 -121l-119 -170 q-66 59 -163 94t-191 35q-59 0 -115.5 -14.5t-99.5 -43t-70 -75.5t-27 -111q0 -57 21.5 -94t59.5 -59.5t89.5 -36t108.5 -23.5q115 -23 214 -48t172 -70.5t115 -115t42 -177.5q0 -117 -46.5 -203t-123 -142.5t-176 -85t-205.5 -28.5q-147 0 -285.5 48t-239.5 126z" />
<glyph unicode="t" horiz-adv-x="1081" d="M39 1231v203h1003v-203h-395v-1231h-215v1231h-393z" />
<glyph unicode="u" horiz-adv-x="1376" d="M141 477v957h215v-967q0 -84 29 -142.5t76 -97.5t106.5 -56t120.5 -17t120.5 17t107 56t76 97.5t28.5 142.5v967h215v-957q0 -133 -46 -231.5t-122 -164t-175 -98t-204 -32.5q-106 0 -204.5 32.5t-174.5 98t-122 164t-46 231.5z" />
<glyph unicode="v" horiz-adv-x="1339" d="M0 1434h227l359 -871l84 -272l84 272l356 871h229l-598 -1434h-143z" />
<glyph unicode="w" horiz-adv-x="1671" d="M0 1434h221l213 -775l55 -282l58 282l221 775h145l222 -775l57 -282l55 282l203 775h221l-405 -1434h-144l-217 723l-65 303l-66 -303l-215 -723h-143z" />
<glyph unicode="x" horiz-adv-x="1241" d="M18 0l480 748l-439 686h242l317 -496l322 496h242l-443 -686l484 -748h-242l-363 557l-358 -557h-242z" />
<glyph unicode="y" horiz-adv-x="1212" d="M0 1434h238l368 -691l369 691h237l-499 -908v-526h-215v526z" />
<glyph unicode="z" horiz-adv-x="1075" d="M49 0v141l674 1090h-674v203h950v-142l-673 -1089h673v-203h-950z" />
<glyph unicode="{" horiz-adv-x="841" d="M102 637v160h58q43 0 70.5 20.5t44 54t23.5 75.5t7 85q2 117 22.5 212t66.5 163t118 103.5t176 35.5v-203q-59 0 -92 -20t-49.5 -60t-20.5 -97.5t-6 -131.5q0 -51 -8 -100t-26.5 -92t-49 -76t-78.5 -49q47 -18 78 -51t49.5 -75t26.5 -91t8 -101q2 -74 6 -131t20.5 -97 t49.5 -60.5t92 -20.5v-203q-104 0 -176 36t-118 103.5t-66.5 163t-22.5 211.5q0 43 -7 85t-23.5 76t-44 54.5t-70.5 20.5h-58z" />
<glyph unicode="|" horiz-adv-x="409" d="M133 -307v2048h143v-2048h-143z" />
<glyph unicode="}" horiz-adv-x="841" d="M154 90q76 0 108.5 39t43.5 98.5t11 133t11.5 143t44.5 127t108 86.5q-47 16 -77.5 49t-48 76t-25.5 92t-8 100l-5 64q-2 63 -9 109t-25.5 77t-49 45t-79.5 14v203q102 0 173.5 -35.5t118 -103.5t68 -163t23.5 -212q0 -104 33.5 -169.5t111.5 -65.5h57v-160h-57 q-43 0 -70.5 -20.5t-44 -54.5t-23.5 -76t-7 -85q-2 -117 -23.5 -212t-68 -162.5t-118 -103.5t-173.5 -36v203z" />
<glyph unicode="&#xa1;" horiz-adv-x="532" d="M113 1327q0 59 43 103.5t104 44.5q59 0 103.5 -44.5t44.5 -103.5q0 -61 -44.5 -104t-103.5 -43q-61 0 -104 44t-43 103zM133 0l55 1044h154l57 -1044h-266z" />
<glyph unicode="&#xa5;" horiz-adv-x="1212" d="M0 1434h238l368 -691l369 691h237l-434 -787h289v-123h-354v-184h354v-123h-354v-217h-215v217h-355v123h355v184h-355v123h287z" />
<glyph unicode="&#xa8;" horiz-adv-x="798" d="M154 1608q0 37 25.5 64.5t66.5 27.5q37 0 64.5 -26.5t27.5 -65.5t-25.5 -65.5t-66.5 -26.5t-66.5 25.5t-25.5 66.5zM461 1608q0 37 25.5 64.5t66.5 27.5t66.5 -26.5t25.5 -65.5t-26.5 -65.5t-65.5 -26.5q-41 0 -66.5 25.5t-25.5 66.5z" />
<glyph unicode="&#xa9;" horiz-adv-x="1658" d="M92 717q0 156 55.5 294t153.5 241.5t233.5 163t294.5 59.5q160 0 295.5 -59.5t233.5 -163t153.5 -242t55.5 -293.5q0 -158 -55.5 -295t-153.5 -240.5t-233.5 -163t-295.5 -59.5t-295 59.5t-233 163t-153.5 240.5t-55.5 295zM215 717q0 -133 43 -249t123 -203t193.5 -137 t254.5 -50t255 50t194 137t123 203t43 249q0 131 -43 247.5t-123 203.5t-194 137.5t-255 50.5t-254.5 -50.5t-193.5 -137.5t-123 -203.5t-43 -247.5zM494 723q0 117 26.5 202t73.5 140t111.5 83t140.5 28q66 0 124 -21.5t101 -67t68.5 -113t25.5 -159.5h-129 q0 127 -54 183.5t-136 56.5q-98 0 -160.5 -78t-62.5 -252q0 -94 18 -159.5t52 -107.5t82 -60.5t106 -18.5q66 0 118 19.5t93 54.5l73 -97q-55 -45 -125.5 -71.5t-158.5 -26.5q-84 0 -155 27.5t-123 84t-80.5 144.5t-28.5 209z" />
<glyph unicode="&#xab;" horiz-adv-x="1122" d="M92 717l387 516h217l-387 -516l387 -516h-217zM496 717l346 459h188l-344 -459l344 -459h-188z" />
<glyph unicode="&#xad;" horiz-adv-x="821" d="M154 614v203h514v-203h-514z" />
<glyph unicode="&#xae;" horiz-adv-x="1658" d="M92 717q0 156 55.5 294t153.5 241.5t233.5 163t294.5 59.5q160 0 295.5 -59.5t233.5 -163t153.5 -242t55.5 -293.5q0 -158 -55.5 -295t-153.5 -240.5t-233.5 -163t-295.5 -59.5t-295 59.5t-233 163t-153.5 240.5t-55.5 295zM215 717q0 -133 43 -249t123 -203t193.5 -137 t254.5 -50t255 50t194 137t123 203t43 249q0 131 -43 247.5t-123 203.5t-194 137.5t-255 50.5t-254.5 -50.5t-193.5 -137.5t-123 -203.5t-43 -247.5zM545 287v860h313q57 0 108.5 -16.5t90.5 -52.5t61.5 -89t22.5 -127q0 -113 -51.5 -178.5t-131.5 -87.5l197 -309h-147 l-185 295h-149v-295h-129zM674 702h184q61 0 107.5 35t46.5 125q0 92 -46 128t-108 36h-184v-324z" />
<glyph unicode="&#xaf;" horiz-adv-x="831" d="M82 1546v103h668v-103h-668z" />
<glyph unicode="&#xb0;" horiz-adv-x="778" d="M82 1167q0 63 24.5 118.5t65.5 97.5t97.5 67t119.5 25t119.5 -25t97.5 -66t65.5 -97t24.5 -120q0 -63 -24.5 -119.5t-65.5 -97.5t-97.5 -65.5t-119.5 -24.5t-119.5 24.5t-97.5 65.5t-65.5 97.5t-24.5 119.5zM215 1167q0 -37 13.5 -69.5t37 -56t55 -38t68.5 -14.5 t68.5 14.5t55.5 38t37 56t13 69.5t-13 69t-37 56.5t-55.5 39t-68.5 14.5t-68.5 -14.5t-55 -38t-37 -56.5t-13.5 -70z" />
<glyph unicode="&#xb4;" horiz-adv-x="815" d="M207 1587l348 189l92 -125l-409 -125z" />
<glyph unicode="&#xb8;" horiz-adv-x="616" d="M154 -348l39 74q12 -6 28.5 -17.5t42.5 -11.5q27 0 43.5 13.5t16.5 35.5q0 29 -28 41t-58 27l-23 10l59 178h97l-31 -108l20 -9q41 -16 72 -50t31 -91q0 -70 -47 -105.5t-119 -35.5q-53 0 -86 16t-57 33z" />
<glyph unicode="&#xbb;" horiz-adv-x="1122" d="M92 258l344 459l-344 459h189l346 -459l-346 -459h-189zM426 201l387 516l-387 516h217l387 -516l-387 -516h-217z" />
<glyph unicode="&#xbf;" horiz-adv-x="1204" d="M86 391q0 96 32 166t85 120t125.5 82t154.5 50l9 244h153l21 -416l-121 -23q-43 -8 -86 -23.5t-78 -43t-57.5 -67.5t-22.5 -97q0 -63 26.5 -105t69.5 -68t96.5 -36t108.5 -10q111 0 205 34.5t160 92.5l118 -168q-98 -80 -225 -122t-258 -42q-96 0 -188 23.5t-165 76 t-118 134t-45 198.5zM428 1335q0 59 43 103.5t104 44.5q59 0 103.5 -44.5t44.5 -103.5t-44 -103t-104 -44q-61 0 -104 43t-43 104z" />
<glyph unicode="&#xc0;" horiz-adv-x="1628" d="M39 0zM39 1016q0 90 30.5 167t97 132t171 87t254.5 32h438q150 -360 298.5 -717t299.5 -717h-229l-119 287h-645l-119 -287h-227q129 309 256 614.5t256 616.5h-209q-66 0 -110 -11.5t-72 -29.5q-84 -18 -121 -66.5t-37 -107.5q0 -78 51 -133.5t162 -55.5v-202 q-109 0 -189.5 30.5t-133 85t-78 125t-25.5 150.5zM592 1651l92 125l348 -189l-31 -61zM719 489h477l-96 236l-80 219l-62 197q-16 -49 -31.5 -98.5t-31.5 -98.5l-80 -219z" />
<glyph unicode="&#xc1;" horiz-adv-x="1628" d="M39 0zM39 1016q0 90 30.5 167t97 132t171 87t254.5 32h438q150 -360 298.5 -717t299.5 -717h-229l-119 287h-645l-119 -287h-227q129 309 256 614.5t256 616.5h-209q-66 0 -110 -11.5t-72 -29.5q-84 -18 -121 -66.5t-37 -107.5q0 -78 51 -133.5t162 -55.5v-202 q-109 0 -189.5 30.5t-133 85t-78 125t-25.5 150.5zM719 489h477l-96 236l-80 219l-62 197q-16 -49 -31.5 -98.5t-31.5 -98.5l-80 -219zM725 1587l348 189l92 -125l-409 -125z" />
<glyph unicode="&#xc2;" horiz-adv-x="1628" d="M39 0zM39 1016q0 90 30.5 167t97 132t171 87t254.5 32h438q150 -360 298.5 -717t299.5 -717h-229l-119 287h-645l-119 -287h-227q129 309 256 614.5t256 616.5h-209q-66 0 -110 -11.5t-72 -29.5q-84 -18 -121 -66.5t-37 -107.5q0 -78 51 -133.5t162 -55.5v-202 q-109 0 -189.5 30.5t-133 85t-78 125t-25.5 150.5zM667 1536l175 201h167l175 -201h-109l-152 113l-151 -113h-105zM719 489h477l-96 236l-80 219l-62 197q-16 -49 -31.5 -98.5t-31.5 -98.5l-80 -219z" />
<glyph unicode="&#xc3;" horiz-adv-x="1628" d="M39 0zM39 1016q0 90 30.5 167t97 132t171 87t254.5 32h438q150 -360 298.5 -717t299.5 -717h-229l-119 287h-645l-119 -287h-227q129 309 256 614.5t256 616.5h-209q-66 0 -110 -11.5t-72 -29.5q-84 -18 -121 -66.5t-37 -107.5q0 -78 51 -133.5t162 -55.5v-202 q-109 0 -189.5 30.5t-133 85t-78 125t-25.5 150.5zM700 1526q23 86 56.5 127t93.5 41q27 0 54.5 -9.5t54 -20.5t51 -20.5t43.5 -9.5q29 0 45 16.5t32 57.5l82 -25q-23 -86 -56.5 -126.5t-92.5 -40.5q-27 0 -55.5 9t-55 20t-50.5 20.5t-42 9.5q-31 0 -47 -16.5t-33 -55.5z M719 489h477l-96 236l-80 219l-62 197q-16 -49 -31.5 -98.5t-31.5 -98.5l-80 -219z" />
<glyph unicode="&#xc4;" horiz-adv-x="1628" d="M39 0zM39 1016q0 90 30.5 167t97 132t171 87t254.5 32h438q150 -360 298.5 -717t299.5 -717h-229l-119 287h-645l-119 -287h-227q129 309 256 614.5t256 616.5h-209q-66 0 -110 -11.5t-72 -29.5q-84 -18 -121 -66.5t-37 -107.5q0 -78 51 -133.5t162 -55.5v-202 q-109 0 -189.5 30.5t-133 85t-78 125t-25.5 150.5zM689 1608q0 37 25.5 64.5t66.5 27.5q37 0 64.5 -26.5t27.5 -65.5t-25.5 -65.5t-66.5 -26.5t-66.5 25.5t-25.5 66.5zM719 489h477l-96 236l-80 219l-62 197q-16 -49 -31.5 -98.5t-31.5 -98.5l-80 -219zM996 1608 q0 37 25.5 64.5t66.5 27.5t66.5 -26.5t25.5 -65.5t-26.5 -65.5t-65.5 -26.5q-41 0 -66.5 25.5t-25.5 66.5z" />
<glyph unicode="&#xc5;" horiz-adv-x="1628" d="M39 1016q0 90 30.5 167t96 132t171 87t255.5 32h258q-61 49 -62 133q0 72 49.5 121t123.5 49q72 0 120.5 -49.5t48.5 -120.5q0 -53 -25.5 -93t-68.5 -59q147 -356 296 -707.5t296 -707.5h-229l-119 287h-645l-119 -287h-227q129 309 256 614.5t256 616.5h-209 q-66 0 -110 -11.5t-72 -29.5q-84 -18 -121 -66.5t-37 -107.5q0 -78 51 -133.5t162 -55.5v-202q-109 0 -189.5 30.5t-133 85t-78 125t-25.5 150.5zM719 489h477l-96 236l-80 219l-62 197q-16 -49 -31.5 -98.5t-31.5 -98.5l-80 -219zM879 1567q0 -35 23.5 -58.5t58.5 -23.5 t58 23.5t23 58.5t-23.5 58.5t-57.5 23.5q-35 0 -58.5 -23.5t-23.5 -58.5z" />
<glyph unicode="&#xc6;" horiz-adv-x="2099" d="M39 1016q0 90 30.5 167t97 132t171 87t254.5 32h1403v-203h-615v-414h512v-203h-512v-411h615v-203h-830v287h-532l-117 -287h-229l512 1231h-207q-94 0 -159.5 -17.5t-105.5 -46t-57.5 -67.5t-17.5 -84q0 -78 51 -133.5t162 -55.5v-202q-109 0 -189.5 30.5t-133 85 t-78 125t-25.5 150.5zM717 489h448v742h-143z" />
<glyph unicode="&#xc7;" horiz-adv-x="1290" d="M92 729q0 193 44 334t123 234.5t186.5 139.5t234.5 46q109 0 205 -37t168.5 -110.5t114.5 -187.5t42 -267h-215q0 104 -24.5 180t-66.5 124t-99 71.5t-125 23.5q-84 0 -152.5 -31.5t-118 -98.5t-76 -171.5t-26.5 -249.5q0 -158 32 -266.5t88 -178t135 -100t173 -30.5 q111 0 199 32.5t153 89.5l123 -161q-92 -72 -209.5 -118t-265.5 -46q-8 0 -16 1t-17 1l-16 -59l21 -9q41 -16 71.5 -50t30.5 -91q0 -70 -47 -105.5t-119 -35.5q-53 0 -85 16t-58 33l39 74q12 -6 28.5 -17.5t42.5 -11.5q27 0 43.5 13.5t16.5 35.5q0 29 -28 41t-58 27l-23 10 l45 139q-115 18 -209 73.5t-161.5 150t-105.5 229.5t-38 313z" />
<glyph unicode="&#xc8;" horiz-adv-x="1607" d="M39 0zM39 1016q0 90 30.5 167t97 132t171 87t254.5 32h911v-203h-696v-414h594v-203h-594v-411h696v-203h-911v1231q-94 0 -159.5 -17.5t-105.5 -46t-57.5 -67.5t-17.5 -84q0 -78 51 -133.5t162 -55.5v-202q-109 0 -189.5 30.5t-133 85t-78 125t-25.5 150.5zM764 1651 l92 125l348 -189l-31 -61z" />
<glyph unicode="&#xc9;" horiz-adv-x="1607" d="M39 0zM39 1016q0 90 30.5 167t97 132t171 87t254.5 32h911v-203h-696v-414h594v-203h-594v-411h696v-203h-911v1231q-94 0 -159.5 -17.5t-105.5 -46t-57.5 -67.5t-17.5 -84q0 -78 51 -133.5t162 -55.5v-202q-109 0 -189.5 30.5t-133 85t-78 125t-25.5 150.5zM838 1587 l348 189l92 -125l-409 -125z" />
<glyph unicode="&#xca;" horiz-adv-x="1607" d="M39 0zM39 1016q0 90 30.5 167t97 132t171 87t254.5 32h911v-203h-696v-414h594v-203h-594v-411h696v-203h-911v1231q-94 0 -159.5 -17.5t-105.5 -46t-57.5 -67.5t-17.5 -84q0 -78 51 -133.5t162 -55.5v-202q-109 0 -189.5 30.5t-133 85t-78 125t-25.5 150.5zM768 1536 l175 201h167l175 -201h-109l-152 113l-151 -113h-105z" />
<glyph unicode="&#xcb;" horiz-adv-x="1607" d="M39 0zM39 1016q0 90 30.5 167t97 132t171 87t254.5 32h911v-203h-696v-414h594v-203h-594v-411h696v-203h-911v1231q-94 0 -159.5 -17.5t-105.5 -46t-57.5 -67.5t-17.5 -84q0 -78 51 -133.5t162 -55.5v-202q-109 0 -189.5 30.5t-133 85t-78 125t-25.5 150.5zM844 1608 q0 37 25.5 64.5t66.5 27.5q37 0 64.5 -26.5t27.5 -65.5t-25.5 -65.5t-66.5 -26.5t-66.5 25.5t-25.5 66.5zM1151 1608q0 37 25.5 64.5t66.5 27.5t66.5 -26.5t25.5 -65.5t-26.5 -65.5t-65.5 -26.5q-41 0 -66.5 25.5t-25.5 66.5z" />
<glyph unicode="&#xcc;" horiz-adv-x="964" d="M39 0zM39 1016q0 90 30.5 167t97 132t171 87t254.5 32h215v-1434h-215v1231q-94 0 -159.5 -17.5t-105.5 -46t-57.5 -67.5t-17.5 -84q0 -78 51 -133.5t162 -55.5v-202q-109 0 -189.5 30.5t-133 85t-78 125t-25.5 150.5zM369 1651l92 125l348 -189l-31 -61z" />
<glyph unicode="&#xcd;" horiz-adv-x="999" d="M39 0zM39 1016q0 90 30.5 167t97 132t171 87t254.5 32h215v-1434h-215v1231q-94 0 -159.5 -17.5t-105.5 -46t-57.5 -67.5t-17.5 -84q0 -78 51 -133.5t162 -55.5v-202q-109 0 -189.5 30.5t-133 85t-78 125t-25.5 150.5zM483 1587l348 189l92 -125l-409 -125z" />
<glyph unicode="&#xce;" horiz-adv-x="964" d="M39 0zM39 1016q0 90 30.5 167t97 132t171 87t254.5 32h215v-1434h-215v1231q-94 0 -159.5 -17.5t-105.5 -46t-57.5 -67.5t-17.5 -84q0 -78 51 -133.5t162 -55.5v-202q-109 0 -189.5 30.5t-133 85t-78 125t-25.5 150.5zM413 1536l175 201h167l175 -201h-109l-152 113 l-151 -113h-105z" />
<glyph unicode="&#xcf;" horiz-adv-x="991" d="M39 0zM39 1016q0 90 30.5 167t97 132t171 87t254.5 32h215v-1434h-215v1231q-94 0 -159.5 -17.5t-105.5 -46t-57.5 -67.5t-17.5 -84q0 -78 51 -133.5t162 -55.5v-202q-109 0 -189.5 30.5t-133 85t-78 125t-25.5 150.5zM455 1608q0 37 25.5 64.5t66.5 27.5 q37 0 64.5 -26.5t27.5 -65.5t-25.5 -65.5t-66.5 -26.5t-66.5 25.5t-25.5 66.5zM762 1608q0 37 25.5 64.5t66.5 27.5t66.5 -26.5t25.5 -65.5t-26.5 -65.5t-65.5 -26.5q-41 0 -66.5 25.5t-25.5 66.5z" />
<glyph unicode="&#xd0;" horiz-adv-x="1767" d="M39 0zM39 1016q0 90 30.5 167t97 132t171 87t254.5 32h401q147 0 272.5 -43t216.5 -131.5t142 -223.5t51 -319t-51 -319.5t-142 -223.5t-216 -131t-273 -43h-401v625h-127q-109 0 -189.5 30.5t-133 85t-78 125t-25.5 150.5zM252 1016q0 -78 51 -133.5t162 -55.5h127v404 q-94 0 -159.5 -17.5t-105.5 -46t-57.5 -67.5t-17.5 -84zM807 203h184q104 0 190.5 28.5t148 91t96 160t34.5 234.5t-34.5 234.5t-96 160t-147.5 91t-191 28.5h-184v-404h340v-202h-340v-422z" />
<glyph unicode="&#xd1;" horiz-adv-x="1812" d="M39 0zM39 1016q0 90 30.5 167t97 132t171 87t254.5 32h143l709 -992v992h215v-1434h-143l-709 991v-991h-215v1231q-94 0 -159.5 -17.5t-105.5 -46t-57.5 -67.5t-17.5 -84q0 -78 51 -133.5t162 -55.5v-202q-109 0 -189.5 30.5t-133 85t-78 125t-25.5 150.5zM874 1526 q23 86 56.5 127t93.5 41q27 0 54.5 -9.5t54 -20.5t51 -20.5t43.5 -9.5q29 0 45 16.5t32 57.5l82 -25q-23 -86 -56.5 -126.5t-92.5 -40.5q-27 0 -55.5 9t-55 20t-50.5 20.5t-42 9.5q-31 0 -47 -16.5t-33 -55.5z" />
<glyph unicode="&#xd2;" d="M92 0zM92 717q0 197 47 341t131 238.5t198 140.5t249 46t248.5 -46t197.5 -140.5t131 -239t47 -340.5q0 -197 -47 -341.5t-131 -238.5t-197.5 -140t-248.5 -46t-249 46t-198 140t-131 238.5t-47 341.5zM307 717q0 -152 31 -258.5t85 -174t129 -99t165 -31.5 q88 0 163.5 31.5t130 99t85 174t30.5 258.5t-30.5 258t-85 174t-130 99.5t-163.5 31.5q-90 0 -165 -31.5t-129 -99.5t-85 -174.5t-31 -257.5zM496 1651l92 125l348 -189l-31 -61z" />
<glyph unicode="&#xd3;" d="M92 0zM92 717q0 197 47 341t131 238.5t198 140.5t249 46t248.5 -46t197.5 -140.5t131 -239t47 -340.5q0 -197 -47 -341.5t-131 -238.5t-197.5 -140t-248.5 -46t-249 46t-198 140t-131 238.5t-47 341.5zM307 717q0 -152 31 -258.5t85 -174t129 -99t165 -31.5 q88 0 163.5 31.5t130 99t85 174t30.5 258.5t-30.5 258t-85 174t-130 99.5t-163.5 31.5q-90 0 -165 -31.5t-129 -99.5t-85 -174.5t-31 -257.5zM496 1587l348 189l92 -125l-409 -125z" />
<glyph unicode="&#xd4;" d="M92 0zM92 717q0 197 47 341t131 238.5t198 140.5t249 46t248.5 -46t197.5 -140.5t131 -239t47 -340.5q0 -197 -47 -341.5t-131 -238.5t-197.5 -140t-248.5 -46t-249 46t-198 140t-131 238.5t-47 341.5zM307 717q0 -152 31 -258.5t85 -174t129 -99t165 -31.5 q88 0 163.5 31.5t130 99t85 174t30.5 258.5t-30.5 258t-85 174t-130 99.5t-163.5 31.5q-90 0 -165 -31.5t-129 -99.5t-85 -174.5t-31 -257.5zM428 1536l175 201h167l175 -201h-109l-152 113l-151 -113h-105z" />
<glyph unicode="&#xd5;" d="M92 0zM92 717q0 197 47 341t131 238.5t198 140.5t249 46t248.5 -46t197.5 -140.5t131 -239t47 -340.5q0 -197 -47 -341.5t-131 -238.5t-197.5 -140t-248.5 -46t-249 46t-198 140t-131 238.5t-47 341.5zM307 717q0 -152 31 -258.5t85 -174t129 -99t165 -31.5 q88 0 163.5 31.5t130 99t85 174t30.5 258.5t-30.5 258t-85 174t-130 99.5t-163.5 31.5q-90 0 -165 -31.5t-129 -99.5t-85 -174.5t-31 -257.5zM460 1526q23 86 56.5 127t93.5 41q27 0 54.5 -9.5t54 -20.5t51 -20.5t43.5 -9.5q29 0 45 16.5t32 57.5l82 -25 q-23 -86 -56.5 -126.5t-92.5 -40.5q-27 0 -55.5 9t-55 20t-50.5 20.5t-42 9.5q-31 0 -47 -16.5t-33 -55.5z" />
<glyph unicode="&#xd6;" d="M92 0zM92 717q0 197 47 341t131 238.5t198 140.5t249 46t248.5 -46t197.5 -140.5t131 -239t47 -340.5q0 -197 -47 -341.5t-131 -238.5t-197.5 -140t-248.5 -46t-249 46t-198 140t-131 238.5t-47 341.5zM307 717q0 -152 31 -258.5t85 -174t129 -99t165 -31.5 q88 0 163.5 31.5t130 99t85 174t30.5 258.5t-30.5 258t-85 174t-130 99.5t-163.5 31.5q-90 0 -165 -31.5t-129 -99.5t-85 -174.5t-31 -257.5zM471 1608q0 37 25.5 64.5t66.5 27.5q37 0 64.5 -26.5t27.5 -65.5t-25.5 -65.5t-66.5 -26.5t-66.5 25.5t-25.5 66.5zM778 1608 q0 37 25.5 64.5t66.5 27.5t66.5 -26.5t25.5 -65.5t-26.5 -65.5t-65.5 -26.5q-41 0 -66.5 25.5t-25.5 66.5z" />
<glyph unicode="&#xd7;" horiz-adv-x="1370" d="M213 1042l143 144l328 -330l328 330l141 -142l-330 -327l332 -330l-143 -143l-332 329l-326 -325l-139 139l326 326z" />
<glyph unicode="&#xd8;" horiz-adv-x="1423" d="M37 80l145 174q-47 90 -71.5 203.5t-24.5 259.5q0 197 47 341t131 238.5t197.5 140.5t249.5 46q113 0 211 -34t176 -103l123 145l165 -137l-147 -176q47 -90 71.5 -205t24.5 -256q0 -197 -47 -341.5t-131 -238.5t-197.5 -140t-248.5 -46q-115 0 -213.5 33.5t-175.5 101.5 l-121 -145zM301 717q0 -152 30.5 -258.5t85 -174t129.5 -99t165 -31.5t164.5 31.5t129 99t85 174t30.5 258.5t-30.5 258t-85 174t-129 99.5t-164.5 31.5t-165 -31.5t-129.5 -99.5t-85 -174.5t-30.5 -257.5z" />
<glyph unicode="&#xd9;" horiz-adv-x="1826" d="M39 0zM39 1016q0 90 30.5 167t97 132t171 87t254.5 32h215v-967q0 -84 28.5 -142.5t75.5 -97.5t106.5 -56t121.5 -17q61 0 120.5 17t106.5 56t75.5 97.5t28.5 142.5v967h216v-957q0 -133 -46.5 -231.5t-122 -164t-174 -98t-204.5 -32.5q-104 0 -203.5 32.5t-175.5 98 t-122 164t-46 231.5v754q-94 0 -159.5 -17.5t-105.5 -46t-57.5 -67.5t-17.5 -84q0 -78 51 -133.5t162 -55.5v-202q-109 0 -189.5 30.5t-133 85t-78 125t-25.5 150.5zM789 1651l92 125l348 -189l-31 -61z" />
<glyph unicode="&#xda;" horiz-adv-x="1826" d="M39 0zM39 1016q0 90 30.5 167t97 132t171 87t254.5 32h215v-967q0 -84 28.5 -142.5t75.5 -97.5t106.5 -56t121.5 -17q61 0 120.5 17t106.5 56t75.5 97.5t28.5 142.5v967h216v-957q0 -133 -46.5 -231.5t-122 -164t-174 -98t-204.5 -32.5q-104 0 -203.5 32.5t-175.5 98 t-122 164t-46 231.5v754q-94 0 -159.5 -17.5t-105.5 -46t-57.5 -67.5t-17.5 -84q0 -78 51 -133.5t162 -55.5v-202q-109 0 -189.5 30.5t-133 85t-78 125t-25.5 150.5zM963 1587l348 189l92 -125l-409 -125z" />
<glyph unicode="&#xdb;" horiz-adv-x="1826" d="M39 0zM39 1016q0 90 30.5 167t97 132t171 87t254.5 32h215v-967q0 -84 28.5 -142.5t75.5 -97.5t106.5 -56t121.5 -17q61 0 120.5 17t106.5 56t75.5 97.5t28.5 142.5v967h216v-957q0 -133 -46.5 -231.5t-122 -164t-174 -98t-204.5 -32.5q-104 0 -203.5 32.5t-175.5 98 t-122 164t-46 231.5v754q-94 0 -159.5 -17.5t-105.5 -46t-57.5 -67.5t-17.5 -84q0 -78 51 -133.5t162 -55.5v-202q-109 0 -189.5 30.5t-133 85t-78 125t-25.5 150.5zM856 1536l175 201h167l175 -201h-109l-152 113l-151 -113h-105z" />
<glyph unicode="&#xdc;" horiz-adv-x="1826" d="M39 0zM39 1016q0 90 30.5 167t97 132t171 87t254.5 32h215v-967q0 -84 28.5 -142.5t75.5 -97.5t106.5 -56t121.5 -17q61 0 120.5 17t106.5 56t75.5 97.5t28.5 142.5v967h216v-957q0 -133 -46.5 -231.5t-122 -164t-174 -98t-204.5 -32.5q-104 0 -203.5 32.5t-175.5 98 t-122 164t-46 231.5v754q-94 0 -159.5 -17.5t-105.5 -46t-57.5 -67.5t-17.5 -84q0 -78 51 -133.5t162 -55.5v-202q-109 0 -189.5 30.5t-133 85t-78 125t-25.5 150.5zM904 1608q0 37 25.5 64.5t66.5 27.5q37 0 64.5 -26.5t27.5 -65.5t-25.5 -65.5t-66.5 -26.5t-66.5 25.5 t-25.5 66.5zM1211 1608q0 37 25.5 64.5t66.5 27.5t66.5 -26.5t25.5 -65.5t-26.5 -65.5t-65.5 -26.5q-41 0 -66.5 25.5t-25.5 66.5z" />
<glyph unicode="&#xdd;" horiz-adv-x="1644" d="M39 0zM39 1016q0 90 31.5 167t98.5 132t167 87t235 32h99l368 -691l369 691h238l-500 -908v-526h-215v526l-385 703q-80 -4 -136.5 -22.5t-91 -47.5t-50 -65.5t-15.5 -77.5q0 -78 51 -133.5t162 -55.5v-202q-109 0 -189.5 30.5t-133 85t-78 125t-25.5 150.5zM817 1587 l348 189l92 -125l-409 -125z" />
<glyph unicode="&#xde;" horiz-adv-x="1191" d="M154 0v1434h215v-246h307q94 0 180 -27.5t150.5 -86t102.5 -147.5t38 -212t-37 -212t-101.5 -145.5t-149.5 -84t-183 -27.5h-307v-246h-215zM369 449h307q51 0 97 13t82 44t56.5 82t20.5 127t-20.5 128t-56.5 83.5t-82 45t-97 13.5h-307v-536z" />
<glyph unicode="&#xdf;" horiz-adv-x="1236" d="M154 0v932q0 141 32.5 244.5t93 171t143.5 101.5t185 34q94 0 175 -28t140.5 -81t93.5 -130t34 -175t-34 -165.5t-95 -108.5q115 -41 169 -127t54 -215q0 -109 -37 -194t-101.5 -142.5t-154.5 -87t-195 -29.5h-75v205h80q121 0 194.5 59.5t73.5 188.5q0 119 -64.5 171 t-181.5 52h-102v205h67q84 0 135.5 46t51.5 142q0 57 -18.5 97t-49.5 64.5t-72 36t-86 11.5q-115 0 -178 -79t-63 -267v-932h-215z" />
<glyph unicode="&#xe0;" horiz-adv-x="1339" d="M0 0q150 360 298 716.5t300 717.5h143q150 -360 298.5 -717t299.5 -717h-229l-119 287h-645l-119 -287h-227zM0 0zM430 489h477l-108 265l-68 190l-61 197q-16 -49 -31.5 -98.5t-32.5 -98.5l-67 -190zM481 1651l92 125l348 -189l-31 -61z" />
<glyph unicode="&#xe1;" horiz-adv-x="1339" d="M0 0q150 360 298 716.5t300 717.5h143q150 -360 298.5 -717t299.5 -717h-229l-119 287h-645l-119 -287h-227zM0 0zM430 489h477l-108 265l-68 190l-61 197q-16 -49 -31.5 -98.5t-32.5 -98.5l-67 -190zM481 1587l348 189l92 -125l-409 -125z" />
<glyph unicode="&#xe2;" horiz-adv-x="1339" d="M0 0q150 360 298 716.5t300 717.5h143q150 -360 298.5 -717t299.5 -717h-229l-119 287h-645l-119 -287h-227zM0 0zM380 1536l175 201h167l175 -201h-109l-152 113l-151 -113h-105zM430 489h477l-108 265l-68 190l-61 197q-16 -49 -31.5 -98.5t-32.5 -98.5l-67 -190z" />
<glyph unicode="&#xe3;" horiz-adv-x="1339" d="M0 0q150 360 298 716.5t300 717.5h143q150 -360 298.5 -717t299.5 -717h-229l-119 287h-645l-119 -287h-227zM0 0zM413 1526q23 86 56.5 127t93.5 41q27 0 54.5 -9.5t54 -20.5t51 -20.5t43.5 -9.5q29 0 45 16.5t32 57.5l82 -25q-23 -86 -56.5 -126.5t-92.5 -40.5 q-27 0 -55.5 9t-55 20t-50.5 20.5t-42 9.5q-31 0 -47 -16.5t-33 -55.5zM430 489h477l-108 265l-68 190l-61 197q-16 -49 -31.5 -98.5t-32.5 -98.5l-67 -190z" />
<glyph unicode="&#xe4;" horiz-adv-x="1339" d="M0 0q150 360 298 716.5t300 717.5h143q150 -360 298.5 -717t299.5 -717h-229l-119 287h-645l-119 -287h-227zM0 0zM430 489h477l-108 265l-68 190l-61 197q-16 -49 -31.5 -98.5t-32.5 -98.5l-67 -190zM449 1608q0 37 25.5 64.5t66.5 27.5q37 0 64.5 -26.5t27.5 -65.5 t-25.5 -65.5t-66.5 -26.5t-66.5 25.5t-25.5 66.5zM756 1608q0 37 25.5 64.5t66.5 27.5t66.5 -26.5t25.5 -65.5t-26.5 -65.5t-65.5 -26.5q-41 0 -66.5 25.5t-25.5 66.5z" />
<glyph unicode="&#xe5;" horiz-adv-x="1339" d="M0 0l588 1411q-43 20 -68.5 61t-25.5 95q0 72 49 121t121 49q74 0 123 -49.5t49 -120.5q0 -51 -25 -90t-66 -60l594 -1417h-229l-119 287h-645l-119 -287h-227zM430 489h477l-108 265l-68 190l-61 197q-16 -49 -31.5 -98.5t-32.5 -98.5l-67 -190zM582 1567 q0 -35 23.5 -58.5t58.5 -23.5t58 23.5t23 58.5t-23.5 58.5t-57.5 23.5q-35 0 -58.5 -23.5t-23.5 -58.5z" />
<glyph unicode="&#xe6;" horiz-adv-x="1810" d="M0 0l598 1434h1108v-203h-614v-414h512v-203h-512v-411h614v-203h-829v287h-531l-119 -287h-227zM430 489h447v742h-142z" />
<glyph unicode="&#xe7;" horiz-adv-x="1290" d="M92 729q0 193 44 334t123 234.5t186.5 139.5t234.5 46q109 0 205 -37t168.5 -110.5t114.5 -187.5t42 -267h-215q0 104 -24.5 180t-66.5 124t-99 71.5t-125 23.5q-84 0 -152.5 -31.5t-118 -98.5t-76 -171.5t-26.5 -249.5q0 -158 32 -266.5t88 -178t135 -100t173 -30.5 q111 0 199 32.5t153 89.5l123 -161q-92 -72 -209.5 -118t-265.5 -46q-8 0 -16 1t-17 1l-16 -59l21 -9q41 -16 71.5 -50t30.5 -91q0 -70 -47 -105.5t-119 -35.5q-53 0 -85 16t-58 33l39 74q12 -6 28.5 -17.5t42.5 -11.5q27 0 43.5 13.5t16.5 35.5q0 29 -28 41t-58 27l-23 10 l45 139q-115 18 -209 73.5t-161.5 150t-105.5 229.5t-38 313z" />
<glyph unicode="&#xe8;" horiz-adv-x="1169" d="M154 0v1434h911v-203h-696v-414h594v-203h-594v-411h696v-203h-911zM154 0zM363 1651l92 125l348 -189l-31 -61z" />
<glyph unicode="&#xe9;" horiz-adv-x="1169" d="M154 0v1434h911v-203h-696v-414h594v-203h-594v-411h696v-203h-911zM154 0zM387 1587l348 189l92 -125l-409 -125z" />
<glyph unicode="&#xea;" horiz-adv-x="1169" d="M154 0v1434h911v-203h-696v-414h594v-203h-594v-411h696v-203h-911zM154 0zM294 1536l175 201h167l175 -201h-109l-152 113l-151 -113h-105z" />
<glyph unicode="&#xeb;" horiz-adv-x="1169" d="M154 0v1434h911v-203h-696v-414h594v-203h-594v-411h696v-203h-911zM154 0zM353 1608q0 37 25.5 64.5t66.5 27.5q37 0 64.5 -26.5t27.5 -65.5t-25.5 -65.5t-66.5 -26.5t-66.5 25.5t-25.5 66.5zM660 1608q0 37 25.5 64.5t66.5 27.5t66.5 -26.5t25.5 -65.5t-26.5 -65.5 t-65.5 -26.5q-41 0 -66.5 25.5t-25.5 66.5z" />
<glyph unicode="&#xec;" horiz-adv-x="598" d="M80 1651l92 125l348 -189l-31 -61zM193 0v1434h215v-1434h-215z" />
<glyph unicode="&#xed;" horiz-adv-x="598" d="M82 0zM82 1587l348 189l92 -125l-409 -125zM193 0v1434h215v-1434h-215z" />
<glyph unicode="&#xee;" horiz-adv-x="532" d="M-21 1536l175 201h167l175 -201h-109l-152 113l-151 -113h-105zM0 0zM158 0v1434h215v-1434h-215z" />
<glyph unicode="&#xef;" horiz-adv-x="581" d="M45 1608q0 37 25.5 64.5t66.5 27.5q37 0 64.5 -26.5t27.5 -65.5t-25.5 -65.5t-66.5 -26.5t-66.5 25.5t-25.5 66.5zM182 0v1434h215v-1434h-215zM352 1608q0 37 25.5 64.5t66.5 27.5t67 -26.5t26 -65.5t-27 -65.5t-66 -26.5q-41 0 -66.5 25.5t-25.5 66.5z" />
<glyph unicode="&#xf0;" horiz-adv-x="1402" d="M39 0zM39 625v202h188v607h402q147 0 272 -43t216 -131.5t142.5 -223.5t51.5 -319t-51.5 -319.5t-142.5 -223.5t-216 -131t-272 -43h-402v625h-188zM442 203h185q104 0 190 28.5t147.5 91t96.5 160t35 234.5t-35 234.5t-96.5 160t-147.5 91t-190 28.5h-185v-404h340v-202 h-340v-422z" />
<glyph unicode="&#xf1;" horiz-adv-x="1374" d="M154 0v1434h143l709 -992v992h215v-1434h-144l-708 991v-991h-215zM154 0zM430 1526q23 86 56.5 127t93.5 41q27 0 54.5 -9.5t54 -20.5t51 -20.5t43.5 -9.5q29 0 45 16.5t32 57.5l82 -25q-23 -86 -56.5 -126.5t-92.5 -40.5q-27 0 -55.5 9t-55 20t-50.5 20.5t-42 9.5 q-31 0 -47 -16.5t-33 -55.5z" />
<glyph unicode="&#xf2;" d="M92 0zM92 717q0 197 47 341t131 238.5t198 140.5t249 46t248.5 -46t197.5 -140.5t131 -239t47 -340.5q0 -197 -47 -341.5t-131 -238.5t-197.5 -140t-248.5 -46t-249 46t-198 140t-131 238.5t-47 341.5zM307 717q0 -152 31 -258.5t85 -174t129 -99t165 -31.5 q88 0 163.5 31.5t130 99t85 174t30.5 258.5t-30.5 258t-85 174t-130 99.5t-163.5 31.5q-90 0 -165 -31.5t-129 -99.5t-85 -174.5t-31 -257.5zM496 1651l92 125l348 -189l-31 -61z" />
<glyph unicode="&#xf3;" d="M92 0zM92 717q0 197 47 341t131 238.5t198 140.5t249 46t248.5 -46t197.5 -140.5t131 -239t47 -340.5q0 -197 -47 -341.5t-131 -238.5t-197.5 -140t-248.5 -46t-249 46t-198 140t-131 238.5t-47 341.5zM307 717q0 -152 31 -258.5t85 -174t129 -99t165 -31.5 q88 0 163.5 31.5t130 99t85 174t30.5 258.5t-30.5 258t-85 174t-130 99.5t-163.5 31.5q-90 0 -165 -31.5t-129 -99.5t-85 -174.5t-31 -257.5zM496 1587l348 189l92 -125l-409 -125z" />
<glyph unicode="&#xf4;" d="M92 0zM92 717q0 197 47 341t131 238.5t198 140.5t249 46t248.5 -46t197.5 -140.5t131 -239t47 -340.5q0 -197 -47 -341.5t-131 -238.5t-197.5 -140t-248.5 -46t-249 46t-198 140t-131 238.5t-47 341.5zM307 717q0 -152 31 -258.5t85 -174t129 -99t165 -31.5 q88 0 163.5 31.5t130 99t85 174t30.5 258.5t-30.5 258t-85 174t-130 99.5t-163.5 31.5q-90 0 -165 -31.5t-129 -99.5t-85 -174.5t-31 -257.5zM428 1536l175 201h167l175 -201h-109l-152 113l-151 -113h-105z" />
<glyph unicode="&#xf5;" d="M92 0zM92 717q0 197 47 341t131 238.5t198 140.5t249 46t248.5 -46t197.5 -140.5t131 -239t47 -340.5q0 -197 -47 -341.5t-131 -238.5t-197.5 -140t-248.5 -46t-249 46t-198 140t-131 238.5t-47 341.5zM307 717q0 -152 31 -258.5t85 -174t129 -99t165 -31.5 q88 0 163.5 31.5t130 99t85 174t30.5 258.5t-30.5 258t-85 174t-130 99.5t-163.5 31.5q-90 0 -165 -31.5t-129 -99.5t-85 -174.5t-31 -257.5zM460 1526q23 86 56.5 127t93.5 41q27 0 54.5 -9.5t54 -20.5t51 -20.5t43.5 -9.5q29 0 45 16.5t32 57.5l82 -25 q-23 -86 -56.5 -126.5t-92.5 -40.5q-27 0 -55.5 9t-55 20t-50.5 20.5t-42 9.5q-31 0 -47 -16.5t-33 -55.5z" />
<glyph unicode="&#xf6;" d="M92 0zM92 717q0 197 47 341t131 238.5t198 140.5t249 46t248.5 -46t197.5 -140.5t131 -239t47 -340.5q0 -197 -47 -341.5t-131 -238.5t-197.5 -140t-248.5 -46t-249 46t-198 140t-131 238.5t-47 341.5zM307 717q0 -152 31 -258.5t85 -174t129 -99t165 -31.5 q88 0 163.5 31.5t130 99t85 174t30.5 258.5t-30.5 258t-85 174t-130 99.5t-163.5 31.5q-90 0 -165 -31.5t-129 -99.5t-85 -174.5t-31 -257.5zM471 1608q0 37 25.5 64.5t66.5 27.5q37 0 64.5 -26.5t27.5 -65.5t-25.5 -65.5t-66.5 -26.5t-66.5 25.5t-25.5 66.5zM778 1608 q0 37 25.5 64.5t66.5 27.5t66.5 -26.5t25.5 -65.5t-26.5 -65.5t-65.5 -26.5q-41 0 -66.5 25.5t-25.5 66.5z" />
<glyph unicode="&#xf8;" horiz-adv-x="1423" d="M37 80l145 174q-47 90 -71.5 203.5t-24.5 259.5q0 197 47 341t131 238.5t197.5 140.5t249.5 46q113 0 211 -34t176 -103l123 145l165 -137l-147 -176q47 -90 71.5 -205t24.5 -256q0 -197 -47 -341.5t-131 -238.5t-197.5 -140t-248.5 -46q-115 0 -213.5 33.5t-175.5 101.5 l-121 -145zM301 717q0 -152 30.5 -258.5t85 -174t129.5 -99t165 -31.5t164.5 31.5t129 99t85 174t30.5 258.5t-30.5 258t-85 174t-129 99.5t-164.5 31.5t-165 -31.5t-129.5 -99.5t-85 -174.5t-30.5 -257.5z" />
<glyph unicode="&#xf9;" horiz-adv-x="1376" d="M141 0zM141 477v957h215v-967q0 -84 29 -142.5t76 -97.5t106.5 -56t120.5 -17t120.5 17t107 56t76 97.5t28.5 142.5v967h215v-957q0 -133 -46 -231.5t-122 -164t-175 -98t-204 -32.5q-106 0 -204.5 32.5t-174.5 98t-122 164t-46 231.5zM467 1651l92 125l348 -189l-31 -61 z" />
<glyph unicode="&#xfa;" horiz-adv-x="1376" d="M141 0zM141 477v957h215v-967q0 -84 29 -142.5t76 -97.5t106.5 -56t120.5 -17t120.5 17t107 56t76 97.5t28.5 142.5v967h215v-957q0 -133 -46 -231.5t-122 -164t-175 -98t-204 -32.5q-106 0 -204.5 32.5t-174.5 98t-122 164t-46 231.5zM467 1587l348 189l92 -125 l-409 -125z" />
<glyph unicode="&#xfb;" horiz-adv-x="1376" d="M141 0zM141 477v957h215v-967q0 -84 29 -142.5t76 -97.5t106.5 -56t120.5 -17t120.5 17t107 56t76 97.5t28.5 142.5v967h215v-957q0 -133 -46 -231.5t-122 -164t-175 -98t-204 -32.5q-106 0 -204.5 32.5t-174.5 98t-122 164t-46 231.5zM399 1536l175 201h167l175 -201 h-109l-152 113l-151 -113h-105z" />
<glyph unicode="&#xfc;" horiz-adv-x="1376" d="M141 0zM141 477v957h215v-967q0 -84 29 -142.5t76 -97.5t106.5 -56t120.5 -17t120.5 17t107 56t76 97.5t28.5 142.5v967h215v-957q0 -133 -46 -231.5t-122 -164t-175 -98t-204 -32.5q-106 0 -204.5 32.5t-174.5 98t-122 164t-46 231.5zM443 1608q0 37 25.5 64.5 t66.5 27.5q37 0 64.5 -26.5t27.5 -65.5t-25.5 -65.5t-66.5 -26.5t-66.5 25.5t-25.5 66.5zM750 1608q0 37 25.5 64.5t66.5 27.5t66.5 -26.5t25.5 -65.5t-26.5 -65.5t-65.5 -26.5q-41 0 -66.5 25.5t-25.5 66.5z" />
<glyph unicode="&#xfd;" horiz-adv-x="1212" d="M0 0zM0 1434h238l368 -691l369 691h237l-499 -908v-526h-215v526zM385 1587l348 189l92 -125l-409 -125z" />
<glyph unicode="&#xfe;" horiz-adv-x="1191" d="M154 0v1434h215v-246h307q94 0 180 -27.5t150.5 -86t102.5 -147.5t38 -212t-37 -212t-101.5 -145.5t-149.5 -84t-183 -27.5h-307v-246h-215zM369 449h307q51 0 97 13t82 44t56.5 82t20.5 127t-20.5 128t-56.5 83.5t-82 45t-97 13.5h-307v-536z" />
<glyph unicode="&#xff;" horiz-adv-x="1212" d="M0 0zM0 1434h238l368 -691l369 691h237l-499 -908v-526h-215v526zM361 1608q0 37 25.5 64.5t66.5 27.5q37 0 64.5 -26.5t27.5 -65.5t-25.5 -65.5t-66.5 -26.5t-66.5 25.5t-25.5 66.5zM668 1608q0 37 25.5 64.5t66.5 27.5t66.5 -26.5t25.5 -65.5t-26.5 -65.5t-65.5 -26.5 q-41 0 -66.5 25.5t-25.5 66.5z" />
<glyph unicode="&#x152;" horiz-adv-x="1914" d="M92 717q0 197 44 341t118 238.5t172 140.5t207 46q217 0 340 -180v131h839v-203h-624v-414h522v-203h-522v-411h624v-203h-839v129q-61 -92 -147.5 -135t-192.5 -43q-109 0 -207 46t-172 140t-118 238.5t-44 341.5zM307 717q0 -152 25.5 -258.5t72 -174t106.5 -99 t132 -31.5q74 0 135.5 30.5t104.5 98t66.5 174t23.5 258.5t-23.5 259t-66.5 175t-103.5 99.5t-134.5 31.5q-72 0 -134 -31.5t-107.5 -99.5t-71 -174.5t-25.5 -257.5z" />
<glyph unicode="&#x153;" horiz-adv-x="1914" d="M92 717q0 197 44 341t118 238.5t172 140.5t207 46q217 0 340 -180v131h839v-203h-624v-414h522v-203h-522v-411h624v-203h-839v129q-61 -92 -147.5 -135t-192.5 -43q-109 0 -207 46t-172 140t-118 238.5t-44 341.5zM307 717q0 -152 25.5 -258.5t72 -174t106.5 -99 t132 -31.5q74 0 135.5 30.5t104.5 98t66.5 174t23.5 258.5t-23.5 259t-66.5 175t-103.5 99.5t-134.5 31.5q-72 0 -134 -31.5t-107.5 -99.5t-71 -174.5t-25.5 -257.5z" />
<glyph unicode="&#x178;" horiz-adv-x="1644" d="M39 0zM39 1016q0 90 31.5 167t98.5 132t167 87t235 32h99l368 -691l369 691h238l-500 -908v-526h-215v526l-385 703q-80 -4 -136.5 -22.5t-91 -47.5t-50 -65.5t-15.5 -77.5q0 -78 51 -133.5t162 -55.5v-202q-109 0 -189.5 30.5t-133 85t-78 125t-25.5 150.5zM791 1608 q0 37 25.5 64.5t66.5 27.5q37 0 64.5 -26.5t27.5 -65.5t-25.5 -65.5t-66.5 -26.5t-66.5 25.5t-25.5 66.5zM1098 1608q0 37 25.5 64.5t66.5 27.5t66.5 -26.5t25.5 -65.5t-26.5 -65.5t-65.5 -26.5q-41 0 -66.5 25.5t-25.5 66.5z" />
<glyph unicode="&#x2c6;" horiz-adv-x="557" d="M20 1536l175 201h167l175 -201h-109l-152 113l-151 -113h-105z" />
<glyph unicode="&#x2dc;" horiz-adv-x="802" d="M141 1526q23 86 56.5 127t93.5 41q27 0 54.5 -9.5t54 -20.5t51 -20.5t43.5 -9.5q29 0 45 16.5t32 57.5l82 -25q-23 -86 -56.5 -126.5t-92.5 -40.5q-27 0 -55.5 9t-55 20t-50.5 20.5t-42 9.5q-31 0 -47 -16.5t-33 -55.5z" />
<glyph unicode="&#x2000;" horiz-adv-x="888" />
<glyph unicode="&#x2001;" horiz-adv-x="1776" />
<glyph unicode="&#x2002;" horiz-adv-x="888" />
<glyph unicode="&#x2003;" horiz-adv-x="1776" />
<glyph unicode="&#x2004;" horiz-adv-x="592" />
<glyph unicode="&#x2005;" horiz-adv-x="444" />
<glyph unicode="&#x2006;" horiz-adv-x="296" />
<glyph unicode="&#x2007;" horiz-adv-x="296" />
<glyph unicode="&#x2008;" horiz-adv-x="222" />
<glyph unicode="&#x2009;" horiz-adv-x="355" />
<glyph unicode="&#x200a;" horiz-adv-x="98" />
<glyph unicode="&#x2010;" horiz-adv-x="821" d="M154 614v203h514v-203h-514z" />
<glyph unicode="&#x2011;" horiz-adv-x="821" d="M154 614v203h514v-203h-514z" />
<glyph unicode="&#x2012;" horiz-adv-x="821" d="M154 614v203h514v-203h-514z" />
<glyph unicode="&#x2013;" horiz-adv-x="1230" d="M154 614v203h923v-203h-923z" />
<glyph unicode="&#x2014;" horiz-adv-x="1435" d="M154 614v203h1128v-203h-1128z" />
<glyph unicode="&#x2018;" horiz-adv-x="483" d="M92 1083q0 111 50.5 210.5t136.5 179.5l90 -78q-47 -47 -77 -86t-50 -76q63 -2 106 -46t43 -104q0 -61 -44 -106t-105 -45q-63 0 -106.5 44t-43.5 107z" />
<glyph unicode="&#x2019;" horiz-adv-x="483" d="M92 1323q0 59 44 104.5t106 45.5q61 0 105 -44.5t44 -105.5q0 -111 -50 -210t-136 -181l-92 78q92 92 127 164q-63 2 -105.5 45t-42.5 104z" />
<glyph unicode="&#x201a;" horiz-adv-x="483" d="M92 106q0 61 44 106.5t106 45.5q61 0 105 -44t44 -108q0 -111 -50 -210t-136 -179l-92 78q92 92 127 162q-63 2 -105.5 46t-42.5 103z" />
<glyph unicode="&#x201c;" horiz-adv-x="851" d="M92 1083q0 111 50.5 210.5t136.5 179.5l90 -78q-47 -47 -77 -86t-50 -76q63 -2 106 -46t43 -104q0 -61 -44 -106t-105 -45q-63 0 -106.5 44t-43.5 107zM461 1083q0 111 50 210.5t136 179.5l90 -78q-47 -47 -76.5 -86t-50.5 -76q63 -2 106.5 -46t43.5 -104q0 -61 -44 -106 t-106 -45q-63 0 -106 44t-43 107z" />
<glyph unicode="&#x201d;" horiz-adv-x="851" d="M92 1323q0 59 44 104.5t106 45.5q61 0 105 -44.5t44 -105.5q0 -111 -50 -210t-136 -181l-92 78q92 92 127 164q-63 2 -105.5 45t-42.5 104zM461 1323q0 59 44 104.5t105 45.5t105.5 -44.5t44.5 -105.5q0 -111 -50.5 -210t-136.5 -181l-92 78q92 92 127 164q-63 2 -105 45 t-42 104z" />
<glyph unicode="&#x201e;" horiz-adv-x="851" d="M92 106q0 61 44 106.5t106 45.5q61 0 105 -44t44 -108q0 -111 -50 -210t-136 -179l-92 78q92 92 127 162q-63 2 -105.5 46t-42.5 103zM461 106q0 61 44 106.5t105 45.5t105.5 -44t44.5 -108q0 -111 -50.5 -210t-136.5 -179l-92 78q92 92 127 162q-63 2 -105 46t-42 103z " />
<glyph unicode="&#x2022;" horiz-adv-x="765" d="M154 717q0 45 18 87t49 73.5t73 50t89 18.5t89 -18.5t72.5 -49t49 -72.5t18.5 -89t-18.5 -89t-49 -73t-72.5 -49.5t-89 -18.5t-89 18.5t-73 49.5t-49 73t-18 89z" />
<glyph unicode="&#x2026;" horiz-adv-x="1554" d="M92 125q0 68 49 118t117 50q70 0 119 -49t49 -119q0 -68 -49 -117t-119 -49q-68 0 -117 49t-49 117zM610 125q0 68 49.5 118t116.5 50q70 0 119 -49t49 -119q0 -68 -49 -117t-119 -49q-68 0 -117 49t-49 117zM1128 125q0 68 49.5 118t116.5 50q70 0 119 -49t49 -119 q0 -68 -49 -117t-119 -49q-68 0 -117 49t-49 117z" />
<glyph unicode="&#x202f;" horiz-adv-x="355" />
<glyph unicode="&#x2039;" horiz-adv-x="788" d="M92 717l387 516h217l-387 -516l387 -516h-217z" />
<glyph unicode="&#x203a;" horiz-adv-x="788" d="M92 201l387 516l-387 516h217l387 -516l-387 -516h-217z" />
<glyph unicode="&#x205f;" horiz-adv-x="444" />
<glyph unicode="&#x20ac;" horiz-adv-x="1425" d="M92 512v123h187q-2 23 -2.5 46.5t-0.5 47.5v45.5t3 44.5h-187v123h201q25 139 81 240.5t138 168t185.5 99.5t222.5 33q147 0 265 -46t210 -118l-123 -164q-66 57 -154 91t-198 34q-152 0 -260.5 -80t-147.5 -258h504v-123h-522q-2 -23 -2 -45v-45v-48.5t2 -45.5h522v-123 h-506q39 -190 147.5 -274t262.5 -84q111 0 198.5 32.5t153.5 89.5l123 -161q-92 -72 -210 -118t-265 -46q-119 0 -222.5 32.5t-185.5 102.5t-138.5 175.5t-80.5 250.5h-201z" />
<glyph unicode="&#x2122;" horiz-adv-x="1622" d="M23 1303v131h606v-131h-236v-732h-137v732h-233zM705 571v863h92l319 -482l322 482h92v-863h-137v566l-232 -346h-90l-231 344v-564h-135z" />
<glyph unicode="&#xe000;" d="M0 0v1434h1434v-1434h-1434z" />
</font>
</defs>
</svg>
